<?xml version="1.0" encoding="utf-8" standalone="no"?>
<!DOCTYPE svg PUBLIC "-//W3C//DTD SVG 1.1//EN"
  "http://www.w3.org/Graphics/SVG/1.1/DTD/svg11.dtd">
<svg xmlns:xlink="http://www.w3.org/1999/xlink" width="1212.228281pt" height="387.922219pt" viewBox="0 0 1212.228281 387.922219" xmlns="http://www.w3.org/2000/svg" version="1.1">
 <metadata>
  <rdf:RDF xmlns:dc="http://purl.org/dc/elements/1.1/" xmlns:cc="http://creativecommons.org/ns#" xmlns:rdf="http://www.w3.org/1999/02/22-rdf-syntax-ns#">
   <cc:Work>
    <dc:type rdf:resource="http://purl.org/dc/dcmitype/StillImage"/>
    <dc:date>2026-07-21T01:39:39.451666</dc:date>
    <dc:format>image/svg+xml</dc:format>
    <dc:creator>
     <cc:Agent>
      <dc:title>Matplotlib v3.10.9, https://matplotlib.org/</dc:title>
     </cc:Agent>
    </dc:creator>
   </cc:Work>
  </rdf:RDF>
 </metadata>
 <defs>
  <style type="text/css">*{stroke-linejoin: round; stroke-linecap: butt}</style>
 </defs>
 <g id="figure_1">
  <g id="patch_1">
   <path d="M 0 387.922219 
L 1212.228281 387.922219 
L 1212.228281 -0 
L 0 -0 
z
" style="fill: #ffffff"/>
  </g>
  <g id="axes_1">
   <g id="patch_2">
    <path d="M 38.563281 341.66 
L 392.388281 341.66 
L 392.388281 96.92 
L 38.563281 96.92 
z
" style="fill: #ffffff"/>
   </g>
   <g id="matplotlib.axis_1">
    <g id="xtick_1">
     <g id="text_1">
      <!-- MAE -->
      <g style="fill: #262626" transform="translate(74.364895 355.602031) scale(0.09 -0.09)">
       <defs>
        <path id="Arial-BoldMT-4d" d="M 453 0 
L 453 4581 
L 1838 4581 
L 2669 1456 
L 3491 4581 
L 4878 4581 
L 4878 0 
L 4019 0 
L 4019 3606 
L 3109 0 
L 2219 0 
L 1313 3606 
L 1313 0 
L 453 0 
z
" transform="scale(0.015625)"/>
        <path id="Arial-BoldMT-41" d="M 4597 0 
L 3591 0 
L 3191 1041 
L 1359 1041 
L 981 0 
L 0 0 
L 1784 4581 
L 2763 4581 
L 4597 0 
z
M 2894 1813 
L 2263 3513 
L 1644 1813 
L 2894 1813 
z
" transform="scale(0.015625)"/>
        <path id="Arial-BoldMT-45" d="M 466 0 
L 466 4581 
L 3863 4581 
L 3863 3806 
L 1391 3806 
L 1391 2791 
L 3691 2791 
L 3691 2019 
L 1391 2019 
L 1391 772 
L 3950 772 
L 3950 0 
L 466 0 
z
" transform="scale(0.015625)"/>
       </defs>
       <use xlink:href="#Arial-BoldMT-4d"/>
       <use xlink:href="#Arial-BoldMT-41" transform="translate(83.300781 0)"/>
       <use xlink:href="#Arial-BoldMT-45" transform="translate(155.517578 0)"/>
      </g>
      <!-- (RA) -->
      <g style="fill: #262626" transform="translate(74.868333 365.240187) scale(0.09 -0.09)">
       <defs>
        <path id="Arial-BoldMT-28" d="M 1916 -1347 
L 1313 -1347 
Q 834 -625 584 153 
Q 334 931 334 1659 
Q 334 2563 644 3369 
Q 913 4069 1325 4659 
L 1925 4659 
Q 1497 3713 1336 3048 
Q 1175 2384 1175 1641 
Q 1175 1128 1270 590 
Q 1366 53 1531 -431 
Q 1641 -750 1916 -1347 
z
" transform="scale(0.015625)"/>
        <path id="Arial-BoldMT-52" d="M 469 0 
L 469 4581 
L 2416 4581 
Q 3150 4581 3483 4457 
Q 3816 4334 4016 4018 
Q 4216 3703 4216 3297 
Q 4216 2781 3912 2445 
Q 3609 2109 3006 2022 
Q 3306 1847 3501 1637 
Q 3697 1428 4028 894 
L 4588 0 
L 3481 0 
L 2813 997 
Q 2456 1531 2325 1670 
Q 2194 1809 2047 1861 
Q 1900 1913 1581 1913 
L 1394 1913 
L 1394 0 
L 469 0 
z
M 1394 2644 
L 2078 2644 
Q 2744 2644 2909 2700 
Q 3075 2756 3169 2893 
Q 3263 3031 3263 3238 
Q 3263 3469 3139 3611 
Q 3016 3753 2791 3791 
Q 2678 3806 2116 3806 
L 1394 3806 
L 1394 2644 
z
" transform="scale(0.015625)"/>
        <path id="Arial-BoldMT-29" d="M 216 -1347 
Q 475 -791 581 -494 
Q 688 -197 778 190 
Q 869 578 912 926 
Q 956 1275 956 1641 
Q 956 2384 797 3048 
Q 638 3713 209 4659 
L 806 4659 
Q 1278 3988 1539 3234 
Q 1800 2481 1800 1706 
Q 1800 1053 1594 306 
Q 1359 -531 822 -1347 
L 216 -1347 
z
" transform="scale(0.015625)"/>
       </defs>
       <use xlink:href="#Arial-BoldMT-28"/>
       <use xlink:href="#Arial-BoldMT-52" transform="translate(33.300781 0)"/>
       <use xlink:href="#Arial-BoldMT-41" transform="translate(105.517578 0)"/>
       <use xlink:href="#Arial-BoldMT-29" transform="translate(177.734375 0)"/>
      </g>
     </g>
    </g>
    <g id="xtick_2">
     <g id="text_2">
      <!-- RMSE -->
      <g style="fill: #262626" transform="translate(158.770616 355.602031) scale(0.09 -0.09)">
       <defs>
        <path id="Arial-BoldMT-53" d="M 231 1491 
L 1131 1578 
Q 1213 1125 1461 912 
Q 1709 700 2131 700 
Q 2578 700 2804 889 
Q 3031 1078 3031 1331 
Q 3031 1494 2936 1608 
Q 2841 1722 2603 1806 
Q 2441 1863 1863 2006 
Q 1119 2191 819 2459 
Q 397 2838 397 3381 
Q 397 3731 595 4036 
Q 794 4341 1167 4500 
Q 1541 4659 2069 4659 
Q 2931 4659 3367 4281 
Q 3803 3903 3825 3272 
L 2900 3231 
Q 2841 3584 2645 3739 
Q 2450 3894 2059 3894 
Q 1656 3894 1428 3728 
Q 1281 3622 1281 3444 
Q 1281 3281 1419 3166 
Q 1594 3019 2269 2859 
Q 2944 2700 3267 2529 
Q 3591 2359 3773 2064 
Q 3956 1769 3956 1334 
Q 3956 941 3737 597 
Q 3519 253 3119 86 
Q 2719 -81 2122 -81 
Q 1253 -81 787 320 
Q 322 722 231 1491 
z
" transform="scale(0.015625)"/>
       </defs>
       <use xlink:href="#Arial-BoldMT-52"/>
       <use xlink:href="#Arial-BoldMT-4d" transform="translate(72.216797 0)"/>
       <use xlink:href="#Arial-BoldMT-53" transform="translate(155.517578 0)"/>
       <use xlink:href="#Arial-BoldMT-45" transform="translate(222.216797 0)"/>
      </g>
      <!-- (RA) -->
      <g style="fill: #262626" transform="translate(162.275694 365.240187) scale(0.09 -0.09)">
       <use xlink:href="#Arial-BoldMT-28"/>
       <use xlink:href="#Arial-BoldMT-52" transform="translate(33.300781 0)"/>
       <use xlink:href="#Arial-BoldMT-41" transform="translate(105.517578 0)"/>
       <use xlink:href="#Arial-BoldMT-29" transform="translate(177.734375 0)"/>
      </g>
     </g>
    </g>
    <g id="xtick_3">
     <g id="text_3">
      <!-- MAE -->
      <g style="fill: #262626" transform="translate(249.179618 355.602031) scale(0.09 -0.09)">
       <use xlink:href="#Arial-BoldMT-4d"/>
       <use xlink:href="#Arial-BoldMT-41" transform="translate(83.300781 0)"/>
       <use xlink:href="#Arial-BoldMT-45" transform="translate(155.517578 0)"/>
      </g>
      <!-- (log10) -->
      <g style="fill: #262626" transform="translate(244.430712 365.240187) scale(0.09 -0.09)">
       <defs>
        <path id="Arial-BoldMT-6c" d="M 459 0 
L 459 4581 
L 1338 4581 
L 1338 0 
L 459 0 
z
" transform="scale(0.015625)"/>
        <path id="Arial-BoldMT-6f" d="M 256 1706 
Q 256 2144 472 2553 
Q 688 2963 1083 3178 
Q 1478 3394 1966 3394 
Q 2719 3394 3200 2905 
Q 3681 2416 3681 1669 
Q 3681 916 3195 420 
Q 2709 -75 1972 -75 
Q 1516 -75 1102 131 
Q 688 338 472 736 
Q 256 1134 256 1706 
z
M 1156 1659 
Q 1156 1166 1390 903 
Q 1625 641 1969 641 
Q 2313 641 2545 903 
Q 2778 1166 2778 1666 
Q 2778 2153 2545 2415 
Q 2313 2678 1969 2678 
Q 1625 2678 1390 2415 
Q 1156 2153 1156 1659 
z
" transform="scale(0.015625)"/>
        <path id="Arial-BoldMT-67" d="M 378 -219 
L 1381 -341 
Q 1406 -516 1497 -581 
Q 1622 -675 1891 -675 
Q 2234 -675 2406 -572 
Q 2522 -503 2581 -350 
Q 2622 -241 2622 53 
L 2622 538 
Q 2228 0 1628 0 
Q 959 0 569 566 
Q 263 1013 263 1678 
Q 263 2513 664 2953 
Q 1066 3394 1663 3394 
Q 2278 3394 2678 2853 
L 2678 3319 
L 3500 3319 
L 3500 341 
Q 3500 -247 3403 -537 
Q 3306 -828 3131 -993 
Q 2956 -1159 2664 -1253 
Q 2372 -1347 1925 -1347 
Q 1081 -1347 728 -1058 
Q 375 -769 375 -325 
Q 375 -281 378 -219 
z
M 1163 1728 
Q 1163 1200 1367 954 
Q 1572 709 1872 709 
Q 2194 709 2416 961 
Q 2638 1213 2638 1706 
Q 2638 2222 2425 2472 
Q 2213 2722 1888 2722 
Q 1572 2722 1367 2476 
Q 1163 2231 1163 1728 
z
" transform="scale(0.015625)"/>
        <path id="Arial-BoldMT-31" d="M 2519 0 
L 1641 0 
L 1641 3309 
Q 1159 2859 506 2644 
L 506 3441 
Q 850 3553 1253 3867 
Q 1656 4181 1806 4600 
L 2519 4600 
L 2519 0 
z
" transform="scale(0.015625)"/>
        <path id="Arial-BoldMT-30" d="M 1756 4600 
Q 2422 4600 2797 4125 
Q 3244 3563 3244 2259 
Q 3244 959 2794 391 
Q 2422 -78 1756 -78 
Q 1088 -78 678 436 
Q 269 950 269 2269 
Q 269 3563 719 4131 
Q 1091 4600 1756 4600 
z
M 1756 3872 
Q 1597 3872 1472 3770 
Q 1347 3669 1278 3406 
Q 1188 3066 1188 2259 
Q 1188 1453 1269 1151 
Q 1350 850 1473 750 
Q 1597 650 1756 650 
Q 1916 650 2041 751 
Q 2166 853 2234 1116 
Q 2325 1453 2325 2259 
Q 2325 3066 2244 3367 
Q 2163 3669 2039 3770 
Q 1916 3872 1756 3872 
z
" transform="scale(0.015625)"/>
       </defs>
       <use xlink:href="#Arial-BoldMT-28"/>
       <use xlink:href="#Arial-BoldMT-6c" transform="translate(33.300781 0)"/>
       <use xlink:href="#Arial-BoldMT-6f" transform="translate(61.083984 0)"/>
       <use xlink:href="#Arial-BoldMT-67" transform="translate(122.167969 0)"/>
       <use xlink:href="#Arial-BoldMT-31" transform="translate(183.251953 0)"/>
       <use xlink:href="#Arial-BoldMT-30" transform="translate(238.867188 0)"/>
       <use xlink:href="#Arial-BoldMT-29" transform="translate(294.482422 0)"/>
      </g>
     </g>
    </g>
    <g id="xtick_4">
     <g id="text_4">
      <!-- RMSE -->
      <g style="fill: #262626" transform="translate(333.585339 355.602031) scale(0.09 -0.09)">
       <use xlink:href="#Arial-BoldMT-52"/>
       <use xlink:href="#Arial-BoldMT-4d" transform="translate(72.216797 0)"/>
       <use xlink:href="#Arial-BoldMT-53" transform="translate(155.517578 0)"/>
       <use xlink:href="#Arial-BoldMT-45" transform="translate(222.216797 0)"/>
      </g>
      <!-- (log10) -->
      <g style="fill: #262626" transform="translate(331.838074 365.240187) scale(0.09 -0.09)">
       <use xlink:href="#Arial-BoldMT-28"/>
       <use xlink:href="#Arial-BoldMT-6c" transform="translate(33.300781 0)"/>
       <use xlink:href="#Arial-BoldMT-6f" transform="translate(61.083984 0)"/>
       <use xlink:href="#Arial-BoldMT-67" transform="translate(122.167969 0)"/>
       <use xlink:href="#Arial-BoldMT-31" transform="translate(183.251953 0)"/>
       <use xlink:href="#Arial-BoldMT-30" transform="translate(238.867188 0)"/>
       <use xlink:href="#Arial-BoldMT-29" transform="translate(294.482422 0)"/>
      </g>
     </g>
    </g>
    <g id="text_5">
     <!-- Metric -->
     <g style="fill: #262626" transform="translate(200.013711 378.650109) scale(0.105 -0.105)">
      <defs>
       <path id="Arial-BoldMT-65" d="M 2381 1056 
L 3256 909 
Q 3088 428 2723 176 
Q 2359 -75 1813 -75 
Q 947 -75 531 491 
Q 203 944 203 1634 
Q 203 2459 634 2926 
Q 1066 3394 1725 3394 
Q 2466 3394 2894 2905 
Q 3322 2416 3303 1406 
L 1103 1406 
Q 1113 1016 1316 798 
Q 1519 581 1822 581 
Q 2028 581 2168 693 
Q 2309 806 2381 1056 
z
M 2431 1944 
Q 2422 2325 2234 2523 
Q 2047 2722 1778 2722 
Q 1491 2722 1303 2513 
Q 1116 2303 1119 1944 
L 2431 1944 
z
" transform="scale(0.015625)"/>
       <path id="Arial-BoldMT-74" d="M 1981 3319 
L 1981 2619 
L 1381 2619 
L 1381 1281 
Q 1381 875 1398 808 
Q 1416 741 1477 697 
Q 1538 653 1625 653 
Q 1747 653 1978 738 
L 2053 56 
Q 1747 -75 1359 -75 
Q 1122 -75 931 4 
Q 741 84 652 211 
Q 563 338 528 553 
Q 500 706 500 1172 
L 500 2619 
L 97 2619 
L 97 3319 
L 500 3319 
L 500 3978 
L 1381 4491 
L 1381 3319 
L 1981 3319 
z
" transform="scale(0.015625)"/>
       <path id="Arial-BoldMT-72" d="M 1300 0 
L 422 0 
L 422 3319 
L 1238 3319 
L 1238 2847 
Q 1447 3181 1614 3287 
Q 1781 3394 1994 3394 
Q 2294 3394 2572 3228 
L 2300 2463 
Q 2078 2606 1888 2606 
Q 1703 2606 1575 2504 
Q 1447 2403 1373 2137 
Q 1300 1872 1300 1025 
L 1300 0 
z
" transform="scale(0.015625)"/>
       <path id="Arial-BoldMT-69" d="M 459 3769 
L 459 4581 
L 1338 4581 
L 1338 3769 
L 459 3769 
z
M 459 0 
L 459 3319 
L 1338 3319 
L 1338 0 
L 459 0 
z
" transform="scale(0.015625)"/>
       <path id="Arial-BoldMT-63" d="M 3353 2338 
L 2488 2181 
Q 2444 2441 2289 2572 
Q 2134 2703 1888 2703 
Q 1559 2703 1364 2476 
Q 1169 2250 1169 1719 
Q 1169 1128 1367 884 
Q 1566 641 1900 641 
Q 2150 641 2309 783 
Q 2469 925 2534 1272 
L 3397 1125 
Q 3263 531 2881 228 
Q 2500 -75 1859 -75 
Q 1131 -75 698 384 
Q 266 844 266 1656 
Q 266 2478 700 2936 
Q 1134 3394 1875 3394 
Q 2481 3394 2839 3133 
Q 3197 2872 3353 2338 
z
" transform="scale(0.015625)"/>
      </defs>
      <use xlink:href="#Arial-BoldMT-4d"/>
      <use xlink:href="#Arial-BoldMT-65" transform="translate(83.300781 0)"/>
      <use xlink:href="#Arial-BoldMT-74" transform="translate(138.916016 0)"/>
      <use xlink:href="#Arial-BoldMT-72" transform="translate(172.216797 0)"/>
      <use xlink:href="#Arial-BoldMT-69" transform="translate(211.132812 0)"/>
      <use xlink:href="#Arial-BoldMT-63" transform="translate(238.916016 0)"/>
     </g>
    </g>
   </g>
   <g id="matplotlib.axis_2">
    <g id="ytick_1">
     <g id="line2d_1">
      <path d="M 38.563281 341.66 
L 392.388281 341.66 
" clip-path="url(#p934bfa7b32)" style="fill: none; stroke-dasharray: 2.22,0.96; stroke-dashoffset: 0; stroke: #cccccc; stroke-opacity: 0.28; stroke-width: 0.6"/>
     </g>
     <g id="text_6">
      <!-- 0 -->
      <g style="fill: #262626" transform="translate(26.058438 344.881016) scale(0.09 -0.09)">
       <use xlink:href="#Arial-BoldMT-30"/>
      </g>
     </g>
    </g>
    <g id="ytick_2">
     <g id="line2d_2">
      <path d="M 38.563281 305.352366 
L 392.388281 305.352366 
" clip-path="url(#p934bfa7b32)" style="fill: none; stroke-dasharray: 2.22,0.96; stroke-dashoffset: 0; stroke: #cccccc; stroke-opacity: 0.28; stroke-width: 0.6"/>
     </g>
     <g id="text_7">
      <!-- 10 -->
      <g style="fill: #262626" transform="translate(21.053594 308.573381) scale(0.09 -0.09)">
       <use xlink:href="#Arial-BoldMT-31"/>
       <use xlink:href="#Arial-BoldMT-30" transform="translate(55.615234 0)"/>
      </g>
     </g>
    </g>
    <g id="ytick_3">
     <g id="line2d_3">
      <path d="M 38.563281 269.044731 
L 392.388281 269.044731 
" clip-path="url(#p934bfa7b32)" style="fill: none; stroke-dasharray: 2.22,0.96; stroke-dashoffset: 0; stroke: #cccccc; stroke-opacity: 0.28; stroke-width: 0.6"/>
     </g>
     <g id="text_8">
      <!-- 20 -->
      <g style="fill: #262626" transform="translate(21.053594 272.265747) scale(0.09 -0.09)">
       <defs>
        <path id="Arial-BoldMT-32" d="M 3238 816 
L 3238 0 
L 159 0 
Q 209 463 459 877 
Q 709 1291 1447 1975 
Q 2041 2528 2175 2725 
Q 2356 2997 2356 3263 
Q 2356 3556 2198 3714 
Q 2041 3872 1763 3872 
Q 1488 3872 1325 3706 
Q 1163 3541 1138 3156 
L 263 3244 
Q 341 3969 753 4284 
Q 1166 4600 1784 4600 
Q 2463 4600 2850 4234 
Q 3238 3869 3238 3325 
Q 3238 3016 3127 2736 
Q 3016 2456 2775 2150 
Q 2616 1947 2200 1565 
Q 1784 1184 1673 1059 
Q 1563 934 1494 816 
L 3238 816 
z
" transform="scale(0.015625)"/>
       </defs>
       <use xlink:href="#Arial-BoldMT-32"/>
       <use xlink:href="#Arial-BoldMT-30" transform="translate(55.615234 0)"/>
      </g>
     </g>
    </g>
    <g id="ytick_4">
     <g id="line2d_4">
      <path d="M 38.563281 232.737097 
L 392.388281 232.737097 
" clip-path="url(#p934bfa7b32)" style="fill: none; stroke-dasharray: 2.22,0.96; stroke-dashoffset: 0; stroke: #cccccc; stroke-opacity: 0.28; stroke-width: 0.6"/>
     </g>
     <g id="text_9">
      <!-- 30 -->
      <g style="fill: #262626" transform="translate(21.053594 235.958112) scale(0.09 -0.09)">
       <defs>
        <path id="Arial-BoldMT-33" d="M 241 1216 
L 1091 1319 
Q 1131 994 1309 822 
Q 1488 650 1741 650 
Q 2013 650 2198 856 
Q 2384 1063 2384 1413 
Q 2384 1744 2206 1937 
Q 2028 2131 1772 2131 
Q 1603 2131 1369 2066 
L 1466 2781 
Q 1822 2772 2009 2936 
Q 2197 3100 2197 3372 
Q 2197 3603 2059 3740 
Q 1922 3878 1694 3878 
Q 1469 3878 1309 3722 
Q 1150 3566 1116 3266 
L 306 3403 
Q 391 3819 561 4067 
Q 731 4316 1036 4458 
Q 1341 4600 1719 4600 
Q 2366 4600 2756 4188 
Q 3078 3850 3078 3425 
Q 3078 2822 2419 2463 
Q 2813 2378 3048 2084 
Q 3284 1791 3284 1375 
Q 3284 772 2843 347 
Q 2403 -78 1747 -78 
Q 1125 -78 715 280 
Q 306 638 241 1216 
z
" transform="scale(0.015625)"/>
       </defs>
       <use xlink:href="#Arial-BoldMT-33"/>
       <use xlink:href="#Arial-BoldMT-30" transform="translate(55.615234 0)"/>
      </g>
     </g>
    </g>
    <g id="ytick_5">
     <g id="line2d_5">
      <path d="M 38.563281 196.429462 
L 392.388281 196.429462 
" clip-path="url(#p934bfa7b32)" style="fill: none; stroke-dasharray: 2.22,0.96; stroke-dashoffset: 0; stroke: #cccccc; stroke-opacity: 0.28; stroke-width: 0.6"/>
     </g>
     <g id="text_10">
      <!-- 40 -->
      <g style="fill: #262626" transform="translate(21.053594 199.650478) scale(0.09 -0.09)">
       <defs>
        <path id="Arial-BoldMT-34" d="M 1994 0 
L 1994 922 
L 119 922 
L 119 1691 
L 2106 4600 
L 2844 4600 
L 2844 1694 
L 3413 1694 
L 3413 922 
L 2844 922 
L 2844 0 
L 1994 0 
z
M 1994 1694 
L 1994 3259 
L 941 1694 
L 1994 1694 
z
" transform="scale(0.015625)"/>
       </defs>
       <use xlink:href="#Arial-BoldMT-34"/>
       <use xlink:href="#Arial-BoldMT-30" transform="translate(55.615234 0)"/>
      </g>
     </g>
    </g>
    <g id="ytick_6">
     <g id="line2d_6">
      <path d="M 38.563281 160.121828 
L 392.388281 160.121828 
" clip-path="url(#p934bfa7b32)" style="fill: none; stroke-dasharray: 2.22,0.96; stroke-dashoffset: 0; stroke: #cccccc; stroke-opacity: 0.28; stroke-width: 0.6"/>
     </g>
     <g id="text_11">
      <!-- 50 -->
      <g style="fill: #262626" transform="translate(21.053594 163.342844) scale(0.09 -0.09)">
       <defs>
        <path id="Arial-BoldMT-35" d="M 284 1178 
L 1159 1269 
Q 1197 972 1381 798 
Q 1566 625 1806 625 
Q 2081 625 2272 848 
Q 2463 1072 2463 1522 
Q 2463 1944 2273 2155 
Q 2084 2366 1781 2366 
Q 1403 2366 1103 2031 
L 391 2134 
L 841 4519 
L 3163 4519 
L 3163 3697 
L 1506 3697 
L 1369 2919 
Q 1663 3066 1969 3066 
Q 2553 3066 2959 2641 
Q 3366 2216 3366 1538 
Q 3366 972 3038 528 
Q 2591 -78 1797 -78 
Q 1163 -78 763 262 
Q 363 603 284 1178 
z
" transform="scale(0.015625)"/>
       </defs>
       <use xlink:href="#Arial-BoldMT-35"/>
       <use xlink:href="#Arial-BoldMT-30" transform="translate(55.615234 0)"/>
      </g>
     </g>
    </g>
    <g id="ytick_7">
     <g id="line2d_7">
      <path d="M 38.563281 123.814194 
L 392.388281 123.814194 
" clip-path="url(#p934bfa7b32)" style="fill: none; stroke-dasharray: 2.22,0.96; stroke-dashoffset: 0; stroke: #cccccc; stroke-opacity: 0.28; stroke-width: 0.6"/>
     </g>
     <g id="text_12">
      <!-- 60 -->
      <g style="fill: #262626" transform="translate(21.053594 127.035209) scale(0.09 -0.09)">
       <defs>
        <path id="Arial-BoldMT-36" d="M 3247 3459 
L 2397 3366 
Q 2366 3628 2234 3753 
Q 2103 3878 1894 3878 
Q 1616 3878 1423 3628 
Q 1231 3378 1181 2588 
Q 1509 2975 1997 2975 
Q 2547 2975 2939 2556 
Q 3331 2138 3331 1475 
Q 3331 772 2918 347 
Q 2506 -78 1859 -78 
Q 1166 -78 719 461 
Q 272 1000 272 2228 
Q 272 3488 737 4044 
Q 1203 4600 1947 4600 
Q 2469 4600 2811 4308 
Q 3153 4016 3247 3459 
z
M 1256 1544 
Q 1256 1116 1453 883 
Q 1650 650 1903 650 
Q 2147 650 2309 840 
Q 2472 1031 2472 1466 
Q 2472 1913 2297 2120 
Q 2122 2328 1859 2328 
Q 1606 2328 1431 2129 
Q 1256 1931 1256 1544 
z
" transform="scale(0.015625)"/>
       </defs>
       <use xlink:href="#Arial-BoldMT-36"/>
       <use xlink:href="#Arial-BoldMT-30" transform="translate(55.615234 0)"/>
      </g>
     </g>
    </g>
    <g id="text_13">
     <!-- Improvement over Raw (%) -->
     <g style="fill: #262626" transform="translate(14.843672 286.678672) rotate(-90) scale(0.105 -0.105)">
      <defs>
       <path id="Arial-BoldMT-49" d="M 438 0 
L 438 4581 
L 1363 4581 
L 1363 0 
L 438 0 
z
" transform="scale(0.015625)"/>
       <path id="Arial-BoldMT-6d" d="M 394 3319 
L 1203 3319 
L 1203 2866 
Q 1638 3394 2238 3394 
Q 2556 3394 2790 3262 
Q 3025 3131 3175 2866 
Q 3394 3131 3647 3262 
Q 3900 3394 4188 3394 
Q 4553 3394 4806 3245 
Q 5059 3097 5184 2809 
Q 5275 2597 5275 2122 
L 5275 0 
L 4397 0 
L 4397 1897 
Q 4397 2391 4306 2534 
Q 4184 2722 3931 2722 
Q 3747 2722 3584 2609 
Q 3422 2497 3350 2280 
Q 3278 2063 3278 1594 
L 3278 0 
L 2400 0 
L 2400 1819 
Q 2400 2303 2353 2443 
Q 2306 2584 2207 2653 
Q 2109 2722 1941 2722 
Q 1738 2722 1575 2612 
Q 1413 2503 1342 2297 
Q 1272 2091 1272 1613 
L 1272 0 
L 394 0 
L 394 3319 
z
" transform="scale(0.015625)"/>
       <path id="Arial-BoldMT-70" d="M 434 3319 
L 1253 3319 
L 1253 2831 
Q 1413 3081 1684 3237 
Q 1956 3394 2288 3394 
Q 2866 3394 3269 2941 
Q 3672 2488 3672 1678 
Q 3672 847 3265 386 
Q 2859 -75 2281 -75 
Q 2006 -75 1782 34 
Q 1559 144 1313 409 
L 1313 -1263 
L 434 -1263 
L 434 3319 
z
M 1303 1716 
Q 1303 1156 1525 889 
Q 1747 622 2066 622 
Q 2372 622 2575 867 
Q 2778 1113 2778 1672 
Q 2778 2194 2568 2447 
Q 2359 2700 2050 2700 
Q 1728 2700 1515 2451 
Q 1303 2203 1303 1716 
z
" transform="scale(0.015625)"/>
       <path id="Arial-BoldMT-76" d="M 1372 0 
L 34 3319 
L 956 3319 
L 1581 1625 
L 1763 1059 
Q 1834 1275 1853 1344 
Q 1897 1484 1947 1625 
L 2578 3319 
L 3481 3319 
L 2163 0 
L 1372 0 
z
" transform="scale(0.015625)"/>
       <path id="Arial-BoldMT-6e" d="M 3478 0 
L 2600 0 
L 2600 1694 
Q 2600 2231 2544 2389 
Q 2488 2547 2361 2634 
Q 2234 2722 2056 2722 
Q 1828 2722 1647 2597 
Q 1466 2472 1398 2265 
Q 1331 2059 1331 1503 
L 1331 0 
L 453 0 
L 453 3319 
L 1269 3319 
L 1269 2831 
Q 1703 3394 2363 3394 
Q 2653 3394 2893 3289 
Q 3134 3184 3257 3021 
Q 3381 2859 3429 2653 
Q 3478 2447 3478 2063 
L 3478 0 
z
" transform="scale(0.015625)"/>
       <path id="Arial-BoldMT-20" transform="scale(0.015625)"/>
       <path id="Arial-BoldMT-61" d="M 1116 2306 
L 319 2450 
Q 453 2931 781 3162 
Q 1109 3394 1756 3394 
Q 2344 3394 2631 3255 
Q 2919 3116 3036 2902 
Q 3153 2688 3153 2116 
L 3144 1091 
Q 3144 653 3186 445 
Q 3228 238 3344 0 
L 2475 0 
Q 2441 88 2391 259 
Q 2369 338 2359 363 
Q 2134 144 1878 34 
Q 1622 -75 1331 -75 
Q 819 -75 523 203 
Q 228 481 228 906 
Q 228 1188 362 1408 
Q 497 1628 739 1745 
Q 981 1863 1438 1950 
Q 2053 2066 2291 2166 
L 2291 2253 
Q 2291 2506 2166 2614 
Q 2041 2722 1694 2722 
Q 1459 2722 1328 2630 
Q 1197 2538 1116 2306 
z
M 2291 1594 
Q 2122 1538 1756 1459 
Q 1391 1381 1278 1306 
Q 1106 1184 1106 997 
Q 1106 813 1243 678 
Q 1381 544 1594 544 
Q 1831 544 2047 700 
Q 2206 819 2256 991 
Q 2291 1103 2291 1419 
L 2291 1594 
z
" transform="scale(0.015625)"/>
       <path id="Arial-BoldMT-77" d="M 1078 0 
L 28 3319 
L 881 3319 
L 1503 1144 
L 2075 3319 
L 2922 3319 
L 3475 1144 
L 4109 3319 
L 4975 3319 
L 3909 0 
L 3066 0 
L 2494 2134 
L 1931 0 
L 1078 0 
z
" transform="scale(0.015625)"/>
       <path id="Arial-BoldMT-25" d="M 278 3450 
Q 278 4066 548 4362 
Q 819 4659 1281 4659 
Q 1759 4659 2029 4364 
Q 2300 4069 2300 3450 
Q 2300 2834 2029 2537 
Q 1759 2241 1297 2241 
Q 819 2241 548 2536 
Q 278 2831 278 3450 
z
M 963 3456 
Q 963 3009 1066 2856 
Q 1144 2744 1281 2744 
Q 1422 2744 1500 2856 
Q 1600 3009 1600 3456 
Q 1600 3903 1500 4053 
Q 1422 4169 1281 4169 
Q 1144 4169 1066 4056 
Q 963 3903 963 3456 
z
M 1950 -175 
L 1300 -175 
L 3741 4659 
L 4372 4659 
L 1950 -175 
z
M 3369 1028 
Q 3369 1644 3639 1941 
Q 3909 2238 4378 2238 
Q 4850 2238 5120 1941 
Q 5391 1644 5391 1028 
Q 5391 409 5120 112 
Q 4850 -184 4388 -184 
Q 3909 -184 3639 112 
Q 3369 409 3369 1028 
z
M 4053 1031 
Q 4053 584 4156 434 
Q 4234 319 4372 319 
Q 4513 319 4588 431 
Q 4691 584 4691 1031 
Q 4691 1478 4591 1631 
Q 4513 1744 4372 1744 
Q 4231 1744 4156 1631 
Q 4053 1478 4053 1031 
z
" transform="scale(0.015625)"/>
      </defs>
      <use xlink:href="#Arial-BoldMT-49"/>
      <use xlink:href="#Arial-BoldMT-6d" transform="translate(27.783203 0)"/>
      <use xlink:href="#Arial-BoldMT-70" transform="translate(116.699219 0)"/>
      <use xlink:href="#Arial-BoldMT-72" transform="translate(177.783203 0)"/>
      <use xlink:href="#Arial-BoldMT-6f" transform="translate(216.699219 0)"/>
      <use xlink:href="#Arial-BoldMT-76" transform="translate(277.783203 0)"/>
      <use xlink:href="#Arial-BoldMT-65" transform="translate(333.398438 0)"/>
      <use xlink:href="#Arial-BoldMT-6d" transform="translate(389.013672 0)"/>
      <use xlink:href="#Arial-BoldMT-65" transform="translate(477.929688 0)"/>
      <use xlink:href="#Arial-BoldMT-6e" transform="translate(533.544922 0)"/>
      <use xlink:href="#Arial-BoldMT-74" transform="translate(594.628906 0)"/>
      <use xlink:href="#Arial-BoldMT-20" transform="translate(627.929688 0)"/>
      <use xlink:href="#Arial-BoldMT-6f" transform="translate(655.712891 0)"/>
      <use xlink:href="#Arial-BoldMT-76" transform="translate(716.796875 0)"/>
      <use xlink:href="#Arial-BoldMT-65" transform="translate(772.412109 0)"/>
      <use xlink:href="#Arial-BoldMT-72" transform="translate(828.027344 0)"/>
      <use xlink:href="#Arial-BoldMT-20" transform="translate(866.943359 0)"/>
      <use xlink:href="#Arial-BoldMT-52" transform="translate(894.726562 0)"/>
      <use xlink:href="#Arial-BoldMT-61" transform="translate(966.943359 0)"/>
      <use xlink:href="#Arial-BoldMT-77" transform="translate(1022.558594 0)"/>
      <use xlink:href="#Arial-BoldMT-20" transform="translate(1100.341797 0)"/>
      <use xlink:href="#Arial-BoldMT-28" transform="translate(1128.125 0)"/>
      <use xlink:href="#Arial-BoldMT-25" transform="translate(1161.425781 0)"/>
      <use xlink:href="#Arial-BoldMT-29" transform="translate(1250.341797 0)"/>
     </g>
    </g>
   </g>
   <g id="patch_3">
    <path d="M 54.646236 341.66 
L 84.364739 341.66 
L 84.364739 289.669399 
L 54.646236 289.669399 
z
" clip-path="url(#p934bfa7b32)" style="fill: #3b82b4; stroke: #000000; stroke-width: 0.9; stroke-linejoin: miter"/>
   </g>
   <g id="patch_4">
    <path d="M 142.053597 341.66 
L 171.7721 341.66 
L 171.7721 298.578497 
L 142.053597 298.578497 
z
" clip-path="url(#p934bfa7b32)" style="fill: #3b82b4; stroke: #000000; stroke-width: 0.9; stroke-linejoin: miter"/>
   </g>
   <g id="patch_5">
    <path d="M 229.460959 341.66 
L 259.179462 341.66 
L 259.179462 109.795723 
L 229.460959 109.795723 
z
" clip-path="url(#p934bfa7b32)" style="fill: #3b82b4; stroke: #000000; stroke-width: 0.9; stroke-linejoin: miter"/>
   </g>
   <g id="patch_6">
    <path d="M 316.868321 341.66 
L 346.586824 341.66 
L 346.586824 134.004774 
L 316.868321 134.004774 
z
" clip-path="url(#p934bfa7b32)" style="fill: #3b82b4; stroke: #000000; stroke-width: 0.9; stroke-linejoin: miter"/>
   </g>
   <g id="patch_7">
    <path d="M 84.364739 341.66 
L 114.083242 341.66 
L 114.083242 297.085624 
L 84.364739 297.085624 
z
" clip-path="url(#p934bfa7b32)" style="fill: #d65f5f; stroke: #000000; stroke-width: 0.9; stroke-linejoin: miter"/>
   </g>
   <g id="patch_8">
    <path d="M 171.7721 341.66 
L 201.490603 341.66 
L 201.490603 307.144418 
L 171.7721 307.144418 
z
" clip-path="url(#p934bfa7b32)" style="fill: #d65f5f; stroke: #000000; stroke-width: 0.9; stroke-linejoin: miter"/>
   </g>
   <g id="patch_9">
    <path d="M 259.179462 341.66 
L 288.897965 341.66 
L 288.897965 108.574286 
L 259.179462 108.574286 
z
" clip-path="url(#p934bfa7b32)" style="fill: #d65f5f; stroke: #000000; stroke-width: 0.9; stroke-linejoin: miter"/>
   </g>
   <g id="patch_10">
    <path d="M 346.586824 341.66 
L 376.305327 341.66 
L 376.305327 130.418278 
L 346.586824 130.418278 
z
" clip-path="url(#p934bfa7b32)" style="fill: #d65f5f; stroke: #000000; stroke-width: 0.9; stroke-linejoin: miter"/>
   </g>
   <g id="line2d_8">
    <path d="M 38.563281 341.66 
L 392.388281 341.66 
" clip-path="url(#p934bfa7b32)" style="fill: none; stroke-dasharray: 3.7,1.6; stroke-dashoffset: 0; stroke: #000000"/>
   </g>
   <g id="patch_11">
    <path d="M 38.563281 341.66 
L 38.563281 96.92 
" style="fill: none; stroke: #262626; stroke-width: 1.2; stroke-linejoin: miter; stroke-linecap: square"/>
   </g>
   <g id="patch_12">
    <path d="M 392.388281 341.66 
L 392.388281 96.92 
" style="fill: none; stroke: #262626; stroke-width: 1.2; stroke-linejoin: miter; stroke-linecap: square"/>
   </g>
   <g id="patch_13">
    <path d="M 38.563281 341.66 
L 392.388281 341.66 
" style="fill: none; stroke: #262626; stroke-width: 1.2; stroke-linejoin: miter; stroke-linecap: square"/>
   </g>
   <g id="patch_14">
    <path d="M 38.563281 96.92 
L 392.388281 96.92 
" style="fill: none; stroke: #262626; stroke-width: 1.2; stroke-linejoin: miter; stroke-linecap: square"/>
   </g>
   <g id="text_14">
    <!-- Zero-recovery improvement -->
    <g style="fill: #262626" transform="translate(139.423945 88.92) scale(0.115 -0.115)">
     <defs>
      <path id="Arial-BoldMT-5a" d="M 69 0 
L 69 834 
L 2475 3806 
L 341 3806 
L 341 4581 
L 3694 4581 
L 3694 3863 
L 1184 772 
L 3791 772 
L 3791 0 
L 69 0 
z
" transform="scale(0.015625)"/>
      <path id="Arial-BoldMT-2d" d="M 359 1222 
L 359 2100 
L 2084 2100 
L 2084 1222 
L 359 1222 
z
" transform="scale(0.015625)"/>
      <path id="Arial-BoldMT-79" d="M 44 3319 
L 978 3319 
L 1772 963 
L 2547 3319 
L 3456 3319 
L 2284 125 
L 2075 -453 
Q 1959 -744 1854 -897 
Q 1750 -1050 1614 -1145 
Q 1478 -1241 1279 -1294 
Q 1081 -1347 831 -1347 
Q 578 -1347 334 -1294 
L 256 -606 
Q 463 -647 628 -647 
Q 934 -647 1081 -467 
Q 1228 -288 1306 -9 
L 44 3319 
z
" transform="scale(0.015625)"/>
     </defs>
     <use xlink:href="#Arial-BoldMT-5a"/>
     <use xlink:href="#Arial-BoldMT-65" transform="translate(61.083984 0)"/>
     <use xlink:href="#Arial-BoldMT-72" transform="translate(116.699219 0)"/>
     <use xlink:href="#Arial-BoldMT-6f" transform="translate(155.615234 0)"/>
     <use xlink:href="#Arial-BoldMT-2d" transform="translate(216.699219 0)"/>
     <use xlink:href="#Arial-BoldMT-72" transform="translate(250 0)"/>
     <use xlink:href="#Arial-BoldMT-65" transform="translate(288.916016 0)"/>
     <use xlink:href="#Arial-BoldMT-63" transform="translate(344.53125 0)"/>
     <use xlink:href="#Arial-BoldMT-6f" transform="translate(400.146484 0)"/>
     <use xlink:href="#Arial-BoldMT-76" transform="translate(461.230469 0)"/>
     <use xlink:href="#Arial-BoldMT-65" transform="translate(516.845703 0)"/>
     <use xlink:href="#Arial-BoldMT-72" transform="translate(572.460938 0)"/>
     <use xlink:href="#Arial-BoldMT-79" transform="translate(611.376953 0)"/>
     <use xlink:href="#Arial-BoldMT-20" transform="translate(666.992188 0)"/>
     <use xlink:href="#Arial-BoldMT-69" transform="translate(694.775391 0)"/>
     <use xlink:href="#Arial-BoldMT-6d" transform="translate(722.558594 0)"/>
     <use xlink:href="#Arial-BoldMT-70" transform="translate(811.474609 0)"/>
     <use xlink:href="#Arial-BoldMT-72" transform="translate(872.558594 0)"/>
     <use xlink:href="#Arial-BoldMT-6f" transform="translate(911.474609 0)"/>
     <use xlink:href="#Arial-BoldMT-76" transform="translate(972.558594 0)"/>
     <use xlink:href="#Arial-BoldMT-65" transform="translate(1028.173828 0)"/>
     <use xlink:href="#Arial-BoldMT-6d" transform="translate(1083.789062 0)"/>
     <use xlink:href="#Arial-BoldMT-65" transform="translate(1172.705078 0)"/>
     <use xlink:href="#Arial-BoldMT-6e" transform="translate(1228.320312 0)"/>
     <use xlink:href="#Arial-BoldMT-74" transform="translate(1289.404297 0)"/>
    </g>
   </g>
   <g id="legend_1">
    <g id="patch_15">
     <path d="M 339.585 111.462031 
L 357.585 111.462031 
L 357.585 105.162031 
L 339.585 105.162031 
z
" style="fill: #3b82b4; stroke: #000000; stroke-width: 0.9; stroke-linejoin: miter"/>
    </g>
    <g id="text_15">
     <!-- RF -->
     <g style="fill: #262626" transform="translate(364.785 111.462031) scale(0.09 -0.09)">
      <defs>
       <path id="Arial-BoldMT-46" d="M 472 0 
L 472 4581 
L 3613 4581 
L 3613 3806 
L 1397 3806 
L 1397 2722 
L 3309 2722 
L 3309 1947 
L 1397 1947 
L 1397 0 
L 472 0 
z
" transform="scale(0.015625)"/>
      </defs>
      <use xlink:href="#Arial-BoldMT-52"/>
      <use xlink:href="#Arial-BoldMT-46" transform="translate(72.216797 0)"/>
     </g>
    </g>
    <g id="patch_16">
     <path d="M 339.585 124.180156 
L 357.585 124.180156 
L 357.585 117.880156 
L 339.585 117.880156 
z
" style="fill: #d65f5f; stroke: #000000; stroke-width: 0.9; stroke-linejoin: miter"/>
    </g>
    <g id="text_16">
     <!-- XGB -->
     <g style="fill: #262626" transform="translate(364.785 124.180156) scale(0.09 -0.09)">
      <defs>
       <path id="Arial-BoldMT-58" d="M 0 0 
L 1566 2391 
L 147 4581 
L 1228 4581 
L 2147 3109 
L 3047 4581 
L 4119 4581 
L 2694 2356 
L 4259 0 
L 3144 0 
L 2128 1584 
L 1109 0 
L 0 0 
z
" transform="scale(0.015625)"/>
       <path id="Arial-BoldMT-47" d="M 2597 1684 
L 2597 2456 
L 4591 2456 
L 4591 631 
Q 4300 350 3748 136 
Q 3197 -78 2631 -78 
Q 1913 -78 1378 223 
Q 844 525 575 1086 
Q 306 1647 306 2306 
Q 306 3022 606 3578 
Q 906 4134 1484 4431 
Q 1925 4659 2581 4659 
Q 3434 4659 3914 4301 
Q 4394 3944 4531 3313 
L 3613 3141 
Q 3516 3478 3248 3673 
Q 2981 3869 2581 3869 
Q 1975 3869 1617 3484 
Q 1259 3100 1259 2344 
Q 1259 1528 1621 1120 
Q 1984 713 2572 713 
Q 2863 713 3155 827 
Q 3447 941 3656 1103 
L 3656 1684 
L 2597 1684 
z
" transform="scale(0.015625)"/>
       <path id="Arial-BoldMT-42" d="M 469 4581 
L 2300 4581 
Q 2844 4581 3111 4536 
Q 3378 4491 3589 4347 
Q 3800 4203 3940 3964 
Q 4081 3725 4081 3428 
Q 4081 3106 3907 2837 
Q 3734 2569 3438 2434 
Q 3856 2313 4081 2019 
Q 4306 1725 4306 1328 
Q 4306 1016 4161 720 
Q 4016 425 3764 248 
Q 3513 72 3144 31 
Q 2913 6 2028 0 
L 469 0 
L 469 4581 
z
M 1394 3819 
L 1394 2759 
L 2000 2759 
Q 2541 2759 2672 2775 
Q 2909 2803 3045 2939 
Q 3181 3075 3181 3297 
Q 3181 3509 3064 3642 
Q 2947 3775 2716 3803 
Q 2578 3819 1925 3819 
L 1394 3819 
z
M 1394 1997 
L 1394 772 
L 2250 772 
Q 2750 772 2884 800 
Q 3091 838 3220 983 
Q 3350 1128 3350 1372 
Q 3350 1578 3250 1722 
Q 3150 1866 2961 1931 
Q 2772 1997 2141 1997 
L 1394 1997 
z
" transform="scale(0.015625)"/>
      </defs>
      <use xlink:href="#Arial-BoldMT-58"/>
      <use xlink:href="#Arial-BoldMT-47" transform="translate(66.699219 0)"/>
      <use xlink:href="#Arial-BoldMT-42" transform="translate(144.482422 0)"/>
     </g>
    </g>
   </g>
  </g>
  <g id="axes_2">
   <g id="patch_17">
    <path d="M 444.883281 341.66 
L 798.708281 341.66 
L 798.708281 96.92 
L 444.883281 96.92 
z
" style="fill: #ffffff"/>
   </g>
   <g id="matplotlib.axis_3">
    <g id="xtick_5">
     <g id="text_17">
      <!-- Dominant -->
      <g style="fill: #262626" transform="translate(444.370039 355.602031) scale(0.09 -0.09)">
       <defs>
        <path id="Arial-BoldMT-44" d="M 463 4581 
L 2153 4581 
Q 2725 4581 3025 4494 
Q 3428 4375 3715 4072 
Q 4003 3769 4153 3330 
Q 4303 2891 4303 2247 
Q 4303 1681 4163 1272 
Q 3991 772 3672 463 
Q 3431 228 3022 97 
Q 2716 0 2203 0 
L 463 0 
L 463 4581 
z
M 1388 3806 
L 1388 772 
L 2078 772 
Q 2466 772 2638 816 
Q 2863 872 3011 1006 
Q 3159 1141 3253 1448 
Q 3347 1756 3347 2288 
Q 3347 2819 3253 3103 
Q 3159 3388 2990 3547 
Q 2822 3706 2563 3763 
Q 2369 3806 1803 3806 
L 1388 3806 
z
" transform="scale(0.015625)"/>
       </defs>
       <use xlink:href="#Arial-BoldMT-44"/>
       <use xlink:href="#Arial-BoldMT-6f" transform="translate(72.216797 0)"/>
       <use xlink:href="#Arial-BoldMT-6d" transform="translate(133.300781 0)"/>
       <use xlink:href="#Arial-BoldMT-69" transform="translate(222.216797 0)"/>
       <use xlink:href="#Arial-BoldMT-6e" transform="translate(250 0)"/>
       <use xlink:href="#Arial-BoldMT-61" transform="translate(311.083984 0)"/>
       <use xlink:href="#Arial-BoldMT-6e" transform="translate(366.699219 0)"/>
       <use xlink:href="#Arial-BoldMT-74" transform="translate(427.783203 0)"/>
      </g>
     </g>
    </g>
    <g id="xtick_6">
     <g id="text_18">
      <!-- Common -->
      <g style="fill: #262626" transform="translate(525.0796 355.602031) scale(0.09 -0.09)">
       <defs>
        <path id="Arial-BoldMT-43" d="M 3397 1684 
L 4294 1400 
Q 4088 650 3608 286 
Q 3128 -78 2391 -78 
Q 1478 -78 890 545 
Q 303 1169 303 2250 
Q 303 3394 893 4026 
Q 1484 4659 2447 4659 
Q 3288 4659 3813 4163 
Q 4125 3869 4281 3319 
L 3366 3100 
Q 3284 3456 3026 3662 
Q 2769 3869 2400 3869 
Q 1891 3869 1573 3503 
Q 1256 3138 1256 2319 
Q 1256 1450 1568 1081 
Q 1881 713 2381 713 
Q 2750 713 3015 947 
Q 3281 1181 3397 1684 
z
" transform="scale(0.015625)"/>
       </defs>
       <use xlink:href="#Arial-BoldMT-43"/>
       <use xlink:href="#Arial-BoldMT-6f" transform="translate(72.216797 0)"/>
       <use xlink:href="#Arial-BoldMT-6d" transform="translate(133.300781 0)"/>
       <use xlink:href="#Arial-BoldMT-6d" transform="translate(222.216797 0)"/>
       <use xlink:href="#Arial-BoldMT-6f" transform="translate(311.132812 0)"/>
       <use xlink:href="#Arial-BoldMT-6e" transform="translate(372.216797 0)"/>
      </g>
     </g>
    </g>
    <g id="xtick_7">
     <g id="text_19">
      <!-- Rare -->
      <g style="fill: #262626" transform="translate(622.274629 355.602031) scale(0.09 -0.09)">
       <use xlink:href="#Arial-BoldMT-52"/>
       <use xlink:href="#Arial-BoldMT-61" transform="translate(72.216797 0)"/>
       <use xlink:href="#Arial-BoldMT-72" transform="translate(127.832031 0)"/>
       <use xlink:href="#Arial-BoldMT-65" transform="translate(166.748047 0)"/>
      </g>
     </g>
    </g>
    <g id="xtick_8">
     <g id="text_20">
      <!-- Very rare -->
      <g style="fill: #262626" transform="translate(681.960752 355.602031) scale(0.09 -0.09)">
       <defs>
        <path id="Arial-BoldMT-56" d="M 1634 0 
L -3 4581 
L 1000 4581 
L 2159 1191 
L 3281 4581 
L 4263 4581 
L 2622 0 
L 1634 0 
z
" transform="scale(0.015625)"/>
       </defs>
       <use xlink:href="#Arial-BoldMT-56"/>
       <use xlink:href="#Arial-BoldMT-65" transform="translate(61.199219 0)"/>
       <use xlink:href="#Arial-BoldMT-72" transform="translate(116.814453 0)"/>
       <use xlink:href="#Arial-BoldMT-79" transform="translate(155.730469 0)"/>
       <use xlink:href="#Arial-BoldMT-20" transform="translate(211.345703 0)"/>
       <use xlink:href="#Arial-BoldMT-72" transform="translate(239.128906 0)"/>
       <use xlink:href="#Arial-BoldMT-61" transform="translate(278.044922 0)"/>
       <use xlink:href="#Arial-BoldMT-72" transform="translate(333.660156 0)"/>
       <use xlink:href="#Arial-BoldMT-65" transform="translate(372.576172 0)"/>
      </g>
     </g>
    </g>
    <g id="xtick_9">
     <g id="text_21">
      <!-- Ref. zero -->
      <g style="fill: #262626" transform="translate(760.701563 355.602031) scale(0.09 -0.09)">
       <defs>
        <path id="Arial-BoldMT-66" d="M 75 3319 
L 563 3319 
L 563 3569 
Q 563 3988 652 4194 
Q 741 4400 980 4529 
Q 1219 4659 1584 4659 
Q 1959 4659 2319 4547 
L 2200 3934 
Q 1991 3984 1797 3984 
Q 1606 3984 1523 3895 
Q 1441 3806 1441 3553 
L 1441 3319 
L 2097 3319 
L 2097 2628 
L 1441 2628 
L 1441 0 
L 563 0 
L 563 2628 
L 75 2628 
L 75 3319 
z
" transform="scale(0.015625)"/>
        <path id="Arial-BoldMT-2e" d="M 459 0 
L 459 878 
L 1338 878 
L 1338 0 
L 459 0 
z
" transform="scale(0.015625)"/>
        <path id="Arial-BoldMT-7a" d="M 106 0 
L 106 684 
L 1350 2113 
Q 1656 2463 1803 2609 
Q 1650 2600 1400 2597 
L 228 2591 
L 228 3319 
L 2972 3319 
L 2972 2697 
L 1703 1234 
L 1256 750 
Q 1622 772 1709 772 
L 3069 772 
L 3069 0 
L 106 0 
z
" transform="scale(0.015625)"/>
       </defs>
       <use xlink:href="#Arial-BoldMT-52"/>
       <use xlink:href="#Arial-BoldMT-65" transform="translate(72.216797 0)"/>
       <use xlink:href="#Arial-BoldMT-66" transform="translate(127.832031 0)"/>
       <use xlink:href="#Arial-BoldMT-2e" transform="translate(161.132812 0)"/>
       <use xlink:href="#Arial-BoldMT-20" transform="translate(188.916016 0)"/>
       <use xlink:href="#Arial-BoldMT-7a" transform="translate(216.699219 0)"/>
       <use xlink:href="#Arial-BoldMT-65" transform="translate(266.699219 0)"/>
       <use xlink:href="#Arial-BoldMT-72" transform="translate(322.314453 0)"/>
       <use xlink:href="#Arial-BoldMT-6f" transform="translate(361.230469 0)"/>
      </g>
     </g>
    </g>
    <g id="text_22">
     <!-- Reference abundance group -->
     <g style="fill: #262626" transform="translate(550.910938 369.139922) scale(0.105 -0.105)">
      <defs>
       <path id="Arial-BoldMT-62" d="M 422 0 
L 422 4581 
L 1300 4581 
L 1300 2931 
Q 1706 3394 2263 3394 
Q 2869 3394 3266 2955 
Q 3663 2516 3663 1694 
Q 3663 844 3258 384 
Q 2853 -75 2275 -75 
Q 1991 -75 1714 67 
Q 1438 209 1238 488 
L 1238 0 
L 422 0 
z
M 1294 1731 
Q 1294 1216 1456 969 
Q 1684 619 2063 619 
Q 2353 619 2558 867 
Q 2763 1116 2763 1650 
Q 2763 2219 2556 2470 
Q 2350 2722 2028 2722 
Q 1713 2722 1503 2476 
Q 1294 2231 1294 1731 
z
" transform="scale(0.015625)"/>
       <path id="Arial-BoldMT-75" d="M 2644 0 
L 2644 497 
Q 2463 231 2167 78 
Q 1872 -75 1544 -75 
Q 1209 -75 943 72 
Q 678 219 559 484 
Q 441 750 441 1219 
L 441 3319 
L 1319 3319 
L 1319 1794 
Q 1319 1094 1367 936 
Q 1416 778 1544 686 
Q 1672 594 1869 594 
Q 2094 594 2272 717 
Q 2450 841 2515 1023 
Q 2581 1206 2581 1919 
L 2581 3319 
L 3459 3319 
L 3459 0 
L 2644 0 
z
" transform="scale(0.015625)"/>
       <path id="Arial-BoldMT-64" d="M 3503 0 
L 2688 0 
L 2688 488 
Q 2484 203 2207 64 
Q 1931 -75 1650 -75 
Q 1078 -75 670 386 
Q 263 847 263 1672 
Q 263 2516 659 2955 
Q 1056 3394 1663 3394 
Q 2219 3394 2625 2931 
L 2625 4581 
L 3503 4581 
L 3503 0 
z
M 1159 1731 
Q 1159 1200 1306 963 
Q 1519 619 1900 619 
Q 2203 619 2415 876 
Q 2628 1134 2628 1647 
Q 2628 2219 2422 2470 
Q 2216 2722 1894 2722 
Q 1581 2722 1370 2473 
Q 1159 2225 1159 1731 
z
" transform="scale(0.015625)"/>
      </defs>
      <use xlink:href="#Arial-BoldMT-52"/>
      <use xlink:href="#Arial-BoldMT-65" transform="translate(72.216797 0)"/>
      <use xlink:href="#Arial-BoldMT-66" transform="translate(127.832031 0)"/>
      <use xlink:href="#Arial-BoldMT-65" transform="translate(161.132812 0)"/>
      <use xlink:href="#Arial-BoldMT-72" transform="translate(216.748047 0)"/>
      <use xlink:href="#Arial-BoldMT-65" transform="translate(255.664062 0)"/>
      <use xlink:href="#Arial-BoldMT-6e" transform="translate(311.279297 0)"/>
      <use xlink:href="#Arial-BoldMT-63" transform="translate(372.363281 0)"/>
      <use xlink:href="#Arial-BoldMT-65" transform="translate(427.978516 0)"/>
      <use xlink:href="#Arial-BoldMT-20" transform="translate(483.59375 0)"/>
      <use xlink:href="#Arial-BoldMT-61" transform="translate(511.376953 0)"/>
      <use xlink:href="#Arial-BoldMT-62" transform="translate(566.992188 0)"/>
      <use xlink:href="#Arial-BoldMT-75" transform="translate(628.076172 0)"/>
      <use xlink:href="#Arial-BoldMT-6e" transform="translate(689.160156 0)"/>
      <use xlink:href="#Arial-BoldMT-64" transform="translate(750.244141 0)"/>
      <use xlink:href="#Arial-BoldMT-61" transform="translate(811.328125 0)"/>
      <use xlink:href="#Arial-BoldMT-6e" transform="translate(866.943359 0)"/>
      <use xlink:href="#Arial-BoldMT-63" transform="translate(928.027344 0)"/>
      <use xlink:href="#Arial-BoldMT-65" transform="translate(983.642578 0)"/>
      <use xlink:href="#Arial-BoldMT-20" transform="translate(1039.257812 0)"/>
      <use xlink:href="#Arial-BoldMT-67" transform="translate(1067.041016 0)"/>
      <use xlink:href="#Arial-BoldMT-72" transform="translate(1128.125 0)"/>
      <use xlink:href="#Arial-BoldMT-6f" transform="translate(1167.041016 0)"/>
      <use xlink:href="#Arial-BoldMT-75" transform="translate(1228.125 0)"/>
      <use xlink:href="#Arial-BoldMT-70" transform="translate(1289.208984 0)"/>
     </g>
    </g>
   </g>
   <g id="matplotlib.axis_4">
    <g id="ytick_8">
     <g id="line2d_9">
      <path d="M 444.883281 337.380433 
L 798.708281 337.380433 
" clip-path="url(#p79b232d3e2)" style="fill: none; stroke-dasharray: 2.22,0.96; stroke-dashoffset: 0; stroke: #cccccc; stroke-opacity: 0.28; stroke-width: 0.6"/>
     </g>
     <g id="text_23">
      <!-- -200 -->
      <g style="fill: #262626" transform="translate(419.372031 340.601449) scale(0.09 -0.09)">
       <use xlink:href="#Arial-BoldMT-2d"/>
       <use xlink:href="#Arial-BoldMT-32" transform="translate(33.300781 0)"/>
       <use xlink:href="#Arial-BoldMT-30" transform="translate(88.916016 0)"/>
       <use xlink:href="#Arial-BoldMT-30" transform="translate(144.53125 0)"/>
      </g>
     </g>
    </g>
    <g id="ytick_9">
     <g id="line2d_10">
      <path d="M 444.883281 290.991077 
L 798.708281 290.991077 
" clip-path="url(#p79b232d3e2)" style="fill: none; stroke-dasharray: 2.22,0.96; stroke-dashoffset: 0; stroke: #cccccc; stroke-opacity: 0.28; stroke-width: 0.6"/>
     </g>
     <g id="text_24">
      <!-- -150 -->
      <g style="fill: #262626" transform="translate(419.372031 294.212093) scale(0.09 -0.09)">
       <use xlink:href="#Arial-BoldMT-2d"/>
       <use xlink:href="#Arial-BoldMT-31" transform="translate(33.300781 0)"/>
       <use xlink:href="#Arial-BoldMT-35" transform="translate(88.916016 0)"/>
       <use xlink:href="#Arial-BoldMT-30" transform="translate(144.53125 0)"/>
      </g>
     </g>
    </g>
    <g id="ytick_10">
     <g id="line2d_11">
      <path d="M 444.883281 244.601722 
L 798.708281 244.601722 
" clip-path="url(#p79b232d3e2)" style="fill: none; stroke-dasharray: 2.22,0.96; stroke-dashoffset: 0; stroke: #cccccc; stroke-opacity: 0.28; stroke-width: 0.6"/>
     </g>
     <g id="text_25">
      <!-- -100 -->
      <g style="fill: #262626" transform="translate(419.372031 247.822737) scale(0.09 -0.09)">
       <use xlink:href="#Arial-BoldMT-2d"/>
       <use xlink:href="#Arial-BoldMT-31" transform="translate(33.300781 0)"/>
       <use xlink:href="#Arial-BoldMT-30" transform="translate(88.916016 0)"/>
       <use xlink:href="#Arial-BoldMT-30" transform="translate(144.53125 0)"/>
      </g>
     </g>
    </g>
    <g id="ytick_11">
     <g id="line2d_12">
      <path d="M 444.883281 198.212366 
L 798.708281 198.212366 
" clip-path="url(#p79b232d3e2)" style="fill: none; stroke-dasharray: 2.22,0.96; stroke-dashoffset: 0; stroke: #cccccc; stroke-opacity: 0.28; stroke-width: 0.6"/>
     </g>
     <g id="text_26">
      <!-- -50 -->
      <g style="fill: #262626" transform="translate(424.376875 201.433381) scale(0.09 -0.09)">
       <use xlink:href="#Arial-BoldMT-2d"/>
       <use xlink:href="#Arial-BoldMT-35" transform="translate(33.300781 0)"/>
       <use xlink:href="#Arial-BoldMT-30" transform="translate(88.916016 0)"/>
      </g>
     </g>
    </g>
    <g id="ytick_12">
     <g id="line2d_13">
      <path d="M 444.883281 151.82301 
L 798.708281 151.82301 
" clip-path="url(#p79b232d3e2)" style="fill: none; stroke-dasharray: 2.22,0.96; stroke-dashoffset: 0; stroke: #cccccc; stroke-opacity: 0.28; stroke-width: 0.6"/>
     </g>
     <g id="text_27">
      <!-- 0 -->
      <g style="fill: #262626" transform="translate(432.378437 155.044026) scale(0.09 -0.09)">
       <use xlink:href="#Arial-BoldMT-30"/>
      </g>
     </g>
    </g>
    <g id="ytick_13">
     <g id="line2d_14">
      <path d="M 444.883281 105.433654 
L 798.708281 105.433654 
" clip-path="url(#p79b232d3e2)" style="fill: none; stroke-dasharray: 2.22,0.96; stroke-dashoffset: 0; stroke: #cccccc; stroke-opacity: 0.28; stroke-width: 0.6"/>
     </g>
     <g id="text_28">
      <!-- 50 -->
      <g style="fill: #262626" transform="translate(427.373594 108.65467) scale(0.09 -0.09)">
       <use xlink:href="#Arial-BoldMT-35"/>
       <use xlink:href="#Arial-BoldMT-30" transform="translate(55.615234 0)"/>
      </g>
     </g>
    </g>
    <g id="text_29">
     <!-- Improvement over Raw (%) -->
     <g style="fill: #262626" transform="translate(413.162109 286.678672) rotate(-90) scale(0.105 -0.105)">
      <use xlink:href="#Arial-BoldMT-49"/>
      <use xlink:href="#Arial-BoldMT-6d" transform="translate(27.783203 0)"/>
      <use xlink:href="#Arial-BoldMT-70" transform="translate(116.699219 0)"/>
      <use xlink:href="#Arial-BoldMT-72" transform="translate(177.783203 0)"/>
      <use xlink:href="#Arial-BoldMT-6f" transform="translate(216.699219 0)"/>
      <use xlink:href="#Arial-BoldMT-76" transform="translate(277.783203 0)"/>
      <use xlink:href="#Arial-BoldMT-65" transform="translate(333.398438 0)"/>
      <use xlink:href="#Arial-BoldMT-6d" transform="translate(389.013672 0)"/>
      <use xlink:href="#Arial-BoldMT-65" transform="translate(477.929688 0)"/>
      <use xlink:href="#Arial-BoldMT-6e" transform="translate(533.544922 0)"/>
      <use xlink:href="#Arial-BoldMT-74" transform="translate(594.628906 0)"/>
      <use xlink:href="#Arial-BoldMT-20" transform="translate(627.929688 0)"/>
      <use xlink:href="#Arial-BoldMT-6f" transform="translate(655.712891 0)"/>
      <use xlink:href="#Arial-BoldMT-76" transform="translate(716.796875 0)"/>
      <use xlink:href="#Arial-BoldMT-65" transform="translate(772.412109 0)"/>
      <use xlink:href="#Arial-BoldMT-72" transform="translate(828.027344 0)"/>
      <use xlink:href="#Arial-BoldMT-20" transform="translate(866.943359 0)"/>
      <use xlink:href="#Arial-BoldMT-52" transform="translate(894.726562 0)"/>
      <use xlink:href="#Arial-BoldMT-61" transform="translate(966.943359 0)"/>
      <use xlink:href="#Arial-BoldMT-77" transform="translate(1022.558594 0)"/>
      <use xlink:href="#Arial-BoldMT-20" transform="translate(1100.341797 0)"/>
      <use xlink:href="#Arial-BoldMT-28" transform="translate(1128.125 0)"/>
      <use xlink:href="#Arial-BoldMT-25" transform="translate(1161.425781 0)"/>
      <use xlink:href="#Arial-BoldMT-29" transform="translate(1250.341797 0)"/>
     </g>
    </g>
   </g>
   <g id="patch_18">
    <path d="M 459.274042 151.82301 
L 485.865664 151.82301 
L 485.865664 159.180479 
L 459.274042 159.180479 
z
" clip-path="url(#p79b232d3e2)" style="fill: #3b82b4; stroke: #000000; stroke-width: 0.9; stroke-linejoin: miter"/>
   </g>
   <g id="patch_19">
    <path d="M 537.484696 151.82301 
L 564.076318 151.82301 
L 564.076318 145.058632 
L 537.484696 145.058632 
z
" clip-path="url(#p79b232d3e2)" style="fill: #3b82b4; stroke: #000000; stroke-width: 0.9; stroke-linejoin: miter"/>
   </g>
   <g id="patch_20">
    <path d="M 615.69535 151.82301 
L 642.286973 151.82301 
L 642.286973 126.537439 
L 615.69535 126.537439 
z
" clip-path="url(#p79b232d3e2)" style="fill: #3b82b4; stroke: #000000; stroke-width: 0.9; stroke-linejoin: miter"/>
   </g>
   <g id="patch_21">
    <path d="M 693.906005 151.82301 
L 720.497627 151.82301 
L 720.497627 110.613436 
L 693.906005 110.613436 
z
" clip-path="url(#p79b232d3e2)" style="fill: #3b82b4; stroke: #000000; stroke-width: 0.9; stroke-linejoin: miter"/>
   </g>
   <g id="patch_22">
    <path d="M 0 0 
z
" clip-path="url(#p79b232d3e2)" style="fill: #3b82b4; stroke: #000000; stroke-width: 0.9; stroke-linejoin: miter"/>
   </g>
   <g id="patch_23">
    <path d="M 485.865664 151.82301 
L 512.457287 151.82301 
L 512.457287 330.535455 
L 485.865664 330.535455 
z
" clip-path="url(#p79b232d3e2)" style="fill: #d65f5f; stroke: #000000; stroke-width: 0.9; stroke-linejoin: miter"/>
   </g>
   <g id="patch_24">
    <path d="M 564.076318 151.82301 
L 590.667941 151.82301 
L 590.667941 151.625886 
L 564.076318 151.625886 
z
" clip-path="url(#p79b232d3e2)" style="fill: #d65f5f; stroke: #000000; stroke-width: 0.9; stroke-linejoin: miter"/>
   </g>
   <g id="patch_25">
    <path d="M 642.286973 151.82301 
L 668.878595 151.82301 
L 668.878595 128.45604 
L 642.286973 128.45604 
z
" clip-path="url(#p79b232d3e2)" style="fill: #d65f5f; stroke: #000000; stroke-width: 0.9; stroke-linejoin: miter"/>
   </g>
   <g id="patch_26">
    <path d="M 720.497627 151.82301 
L 747.089249 151.82301 
L 747.089249 108.044545 
L 720.497627 108.044545 
z
" clip-path="url(#p79b232d3e2)" style="fill: #d65f5f; stroke: #000000; stroke-width: 0.9; stroke-linejoin: miter"/>
   </g>
   <g id="patch_27">
    <path d="M 0 0 
z
" clip-path="url(#p79b232d3e2)" style="fill: #d65f5f; stroke: #000000; stroke-width: 0.9; stroke-linejoin: miter"/>
   </g>
   <g id="line2d_15">
    <path d="M 444.883281 151.82301 
L 798.708281 151.82301 
" clip-path="url(#p79b232d3e2)" style="fill: none; stroke-dasharray: 3.7,1.6; stroke-dashoffset: 0; stroke: #000000"/>
   </g>
   <g id="patch_28">
    <path d="M 444.883281 341.66 
L 444.883281 96.92 
" style="fill: none; stroke: #262626; stroke-width: 1.2; stroke-linejoin: miter; stroke-linecap: square"/>
   </g>
   <g id="patch_29">
    <path d="M 798.708281 341.66 
L 798.708281 96.92 
" style="fill: none; stroke: #262626; stroke-width: 1.2; stroke-linejoin: miter; stroke-linecap: square"/>
   </g>
   <g id="patch_30">
    <path d="M 444.883281 341.66 
L 798.708281 341.66 
" style="fill: none; stroke: #262626; stroke-width: 1.2; stroke-linejoin: miter; stroke-linecap: square"/>
   </g>
   <g id="patch_31">
    <path d="M 444.883281 96.92 
L 798.708281 96.92 
" style="fill: none; stroke: #262626; stroke-width: 1.2; stroke-linejoin: miter; stroke-linecap: square"/>
   </g>
   <g id="text_30">
    <!-- Abundance-stratified improvement -->
    <g style="fill: #262626" transform="translate(526.592852 76.604578) scale(0.115 -0.115)">
     <defs>
      <path id="Arial-BoldMT-73" d="M 150 947 
L 1031 1081 
Q 1088 825 1259 692 
Q 1431 559 1741 559 
Q 2081 559 2253 684 
Q 2369 772 2369 919 
Q 2369 1019 2306 1084 
Q 2241 1147 2013 1200 
Q 950 1434 666 1628 
Q 272 1897 272 2375 
Q 272 2806 612 3100 
Q 953 3394 1669 3394 
Q 2350 3394 2681 3172 
Q 3013 2950 3138 2516 
L 2309 2363 
Q 2256 2556 2107 2659 
Q 1959 2763 1684 2763 
Q 1338 2763 1188 2666 
Q 1088 2597 1088 2488 
Q 1088 2394 1175 2328 
Q 1294 2241 1995 2081 
Q 2697 1922 2975 1691 
Q 3250 1456 3250 1038 
Q 3250 581 2869 253 
Q 2488 -75 1741 -75 
Q 1063 -75 667 200 
Q 272 475 150 947 
z
" transform="scale(0.015625)"/>
     </defs>
     <use xlink:href="#Arial-BoldMT-41"/>
     <use xlink:href="#Arial-BoldMT-62" transform="translate(72.216797 0)"/>
     <use xlink:href="#Arial-BoldMT-75" transform="translate(133.300781 0)"/>
     <use xlink:href="#Arial-BoldMT-6e" transform="translate(194.384766 0)"/>
     <use xlink:href="#Arial-BoldMT-64" transform="translate(255.46875 0)"/>
     <use xlink:href="#Arial-BoldMT-61" transform="translate(316.552734 0)"/>
     <use xlink:href="#Arial-BoldMT-6e" transform="translate(372.167969 0)"/>
     <use xlink:href="#Arial-BoldMT-63" transform="translate(433.251953 0)"/>
     <use xlink:href="#Arial-BoldMT-65" transform="translate(488.867188 0)"/>
     <use xlink:href="#Arial-BoldMT-2d" transform="translate(544.482422 0)"/>
     <use xlink:href="#Arial-BoldMT-73" transform="translate(577.783203 0)"/>
     <use xlink:href="#Arial-BoldMT-74" transform="translate(633.398438 0)"/>
     <use xlink:href="#Arial-BoldMT-72" transform="translate(666.699219 0)"/>
     <use xlink:href="#Arial-BoldMT-61" transform="translate(705.615234 0)"/>
     <use xlink:href="#Arial-BoldMT-74" transform="translate(761.230469 0)"/>
     <use xlink:href="#Arial-BoldMT-69" transform="translate(794.53125 0)"/>
     <use xlink:href="#Arial-BoldMT-66" transform="translate(822.314453 0)"/>
     <use xlink:href="#Arial-BoldMT-69" transform="translate(855.615234 0)"/>
     <use xlink:href="#Arial-BoldMT-65" transform="translate(883.398438 0)"/>
     <use xlink:href="#Arial-BoldMT-64" transform="translate(939.013672 0)"/>
     <use xlink:href="#Arial-BoldMT-20" transform="translate(1000.097656 0)"/>
     <use xlink:href="#Arial-BoldMT-69" transform="translate(1027.880859 0)"/>
     <use xlink:href="#Arial-BoldMT-6d" transform="translate(1055.664062 0)"/>
     <use xlink:href="#Arial-BoldMT-70" transform="translate(1144.580078 0)"/>
     <use xlink:href="#Arial-BoldMT-72" transform="translate(1205.664062 0)"/>
     <use xlink:href="#Arial-BoldMT-6f" transform="translate(1244.580078 0)"/>
     <use xlink:href="#Arial-BoldMT-76" transform="translate(1305.664062 0)"/>
     <use xlink:href="#Arial-BoldMT-65" transform="translate(1361.279297 0)"/>
     <use xlink:href="#Arial-BoldMT-6d" transform="translate(1416.894531 0)"/>
     <use xlink:href="#Arial-BoldMT-65" transform="translate(1505.810547 0)"/>
     <use xlink:href="#Arial-BoldMT-6e" transform="translate(1561.425781 0)"/>
     <use xlink:href="#Arial-BoldMT-74" transform="translate(1622.509766 0)"/>
    </g>
    <!-- RMSE (RA scale) -->
    <g style="fill: #262626" transform="translate(575.68168 88.92) scale(0.115 -0.115)">
     <use xlink:href="#Arial-BoldMT-52"/>
     <use xlink:href="#Arial-BoldMT-4d" transform="translate(72.216797 0)"/>
     <use xlink:href="#Arial-BoldMT-53" transform="translate(155.517578 0)"/>
     <use xlink:href="#Arial-BoldMT-45" transform="translate(222.216797 0)"/>
     <use xlink:href="#Arial-BoldMT-20" transform="translate(288.916016 0)"/>
     <use xlink:href="#Arial-BoldMT-28" transform="translate(316.699219 0)"/>
     <use xlink:href="#Arial-BoldMT-52" transform="translate(350 0)"/>
     <use xlink:href="#Arial-BoldMT-41" transform="translate(422.216797 0)"/>
     <use xlink:href="#Arial-BoldMT-20" transform="translate(490.683594 0)"/>
     <use xlink:href="#Arial-BoldMT-73" transform="translate(518.466797 0)"/>
     <use xlink:href="#Arial-BoldMT-63" transform="translate(574.082031 0)"/>
     <use xlink:href="#Arial-BoldMT-61" transform="translate(629.697266 0)"/>
     <use xlink:href="#Arial-BoldMT-6c" transform="translate(685.3125 0)"/>
     <use xlink:href="#Arial-BoldMT-65" transform="translate(713.095703 0)"/>
     <use xlink:href="#Arial-BoldMT-29" transform="translate(768.710938 0)"/>
    </g>
   </g>
  </g>
  <g id="axes_3">
   <g id="patch_32">
    <path d="M 851.203281 341.66 
L 1205.028281 341.66 
L 1205.028281 96.92 
L 851.203281 96.92 
z
" style="fill: #ffffff"/>
   </g>
   <g id="matplotlib.axis_5">
    <g id="xtick_10">
     <g id="text_31">
      <!-- Dominant -->
      <g style="fill: #262626" transform="translate(850.690039 355.602031) scale(0.09 -0.09)">
       <use xlink:href="#Arial-BoldMT-44"/>
       <use xlink:href="#Arial-BoldMT-6f" transform="translate(72.216797 0)"/>
       <use xlink:href="#Arial-BoldMT-6d" transform="translate(133.300781 0)"/>
       <use xlink:href="#Arial-BoldMT-69" transform="translate(222.216797 0)"/>
       <use xlink:href="#Arial-BoldMT-6e" transform="translate(250 0)"/>
       <use xlink:href="#Arial-BoldMT-61" transform="translate(311.083984 0)"/>
       <use xlink:href="#Arial-BoldMT-6e" transform="translate(366.699219 0)"/>
       <use xlink:href="#Arial-BoldMT-74" transform="translate(427.783203 0)"/>
      </g>
     </g>
    </g>
    <g id="xtick_11">
     <g id="text_32">
      <!-- Common -->
      <g style="fill: #262626" transform="translate(931.3996 355.602031) scale(0.09 -0.09)">
       <use xlink:href="#Arial-BoldMT-43"/>
       <use xlink:href="#Arial-BoldMT-6f" transform="translate(72.216797 0)"/>
       <use xlink:href="#Arial-BoldMT-6d" transform="translate(133.300781 0)"/>
       <use xlink:href="#Arial-BoldMT-6d" transform="translate(222.216797 0)"/>
       <use xlink:href="#Arial-BoldMT-6f" transform="translate(311.132812 0)"/>
       <use xlink:href="#Arial-BoldMT-6e" transform="translate(372.216797 0)"/>
      </g>
     </g>
    </g>
    <g id="xtick_12">
     <g id="text_33">
      <!-- Rare -->
      <g style="fill: #262626" transform="translate(1028.594629 355.602031) scale(0.09 -0.09)">
       <use xlink:href="#Arial-BoldMT-52"/>
       <use xlink:href="#Arial-BoldMT-61" transform="translate(72.216797 0)"/>
       <use xlink:href="#Arial-BoldMT-72" transform="translate(127.832031 0)"/>
       <use xlink:href="#Arial-BoldMT-65" transform="translate(166.748047 0)"/>
      </g>
     </g>
    </g>
    <g id="xtick_13">
     <g id="text_34">
      <!-- Very rare -->
      <g style="fill: #262626" transform="translate(1088.280752 355.602031) scale(0.09 -0.09)">
       <use xlink:href="#Arial-BoldMT-56"/>
       <use xlink:href="#Arial-BoldMT-65" transform="translate(61.199219 0)"/>
       <use xlink:href="#Arial-BoldMT-72" transform="translate(116.814453 0)"/>
       <use xlink:href="#Arial-BoldMT-79" transform="translate(155.730469 0)"/>
       <use xlink:href="#Arial-BoldMT-20" transform="translate(211.345703 0)"/>
       <use xlink:href="#Arial-BoldMT-72" transform="translate(239.128906 0)"/>
       <use xlink:href="#Arial-BoldMT-61" transform="translate(278.044922 0)"/>
       <use xlink:href="#Arial-BoldMT-72" transform="translate(333.660156 0)"/>
       <use xlink:href="#Arial-BoldMT-65" transform="translate(372.576172 0)"/>
      </g>
     </g>
    </g>
    <g id="xtick_14">
     <g id="text_35">
      <!-- Ref. zero -->
      <g style="fill: #262626" transform="translate(1167.021563 355.602031) scale(0.09 -0.09)">
       <use xlink:href="#Arial-BoldMT-52"/>
       <use xlink:href="#Arial-BoldMT-65" transform="translate(72.216797 0)"/>
       <use xlink:href="#Arial-BoldMT-66" transform="translate(127.832031 0)"/>
       <use xlink:href="#Arial-BoldMT-2e" transform="translate(161.132812 0)"/>
       <use xlink:href="#Arial-BoldMT-20" transform="translate(188.916016 0)"/>
       <use xlink:href="#Arial-BoldMT-7a" transform="translate(216.699219 0)"/>
       <use xlink:href="#Arial-BoldMT-65" transform="translate(266.699219 0)"/>
       <use xlink:href="#Arial-BoldMT-72" transform="translate(322.314453 0)"/>
       <use xlink:href="#Arial-BoldMT-6f" transform="translate(361.230469 0)"/>
      </g>
     </g>
    </g>
    <g id="text_36">
     <!-- Reference abundance group -->
     <g style="fill: #262626" transform="translate(957.230938 369.139922) scale(0.105 -0.105)">
      <use xlink:href="#Arial-BoldMT-52"/>
      <use xlink:href="#Arial-BoldMT-65" transform="translate(72.216797 0)"/>
      <use xlink:href="#Arial-BoldMT-66" transform="translate(127.832031 0)"/>
      <use xlink:href="#Arial-BoldMT-65" transform="translate(161.132812 0)"/>
      <use xlink:href="#Arial-BoldMT-72" transform="translate(216.748047 0)"/>
      <use xlink:href="#Arial-BoldMT-65" transform="translate(255.664062 0)"/>
      <use xlink:href="#Arial-BoldMT-6e" transform="translate(311.279297 0)"/>
      <use xlink:href="#Arial-BoldMT-63" transform="translate(372.363281 0)"/>
      <use xlink:href="#Arial-BoldMT-65" transform="translate(427.978516 0)"/>
      <use xlink:href="#Arial-BoldMT-20" transform="translate(483.59375 0)"/>
      <use xlink:href="#Arial-BoldMT-61" transform="translate(511.376953 0)"/>
      <use xlink:href="#Arial-BoldMT-62" transform="translate(566.992188 0)"/>
      <use xlink:href="#Arial-BoldMT-75" transform="translate(628.076172 0)"/>
      <use xlink:href="#Arial-BoldMT-6e" transform="translate(689.160156 0)"/>
      <use xlink:href="#Arial-BoldMT-64" transform="translate(750.244141 0)"/>
      <use xlink:href="#Arial-BoldMT-61" transform="translate(811.328125 0)"/>
      <use xlink:href="#Arial-BoldMT-6e" transform="translate(866.943359 0)"/>
      <use xlink:href="#Arial-BoldMT-63" transform="translate(928.027344 0)"/>
      <use xlink:href="#Arial-BoldMT-65" transform="translate(983.642578 0)"/>
      <use xlink:href="#Arial-BoldMT-20" transform="translate(1039.257812 0)"/>
      <use xlink:href="#Arial-BoldMT-67" transform="translate(1067.041016 0)"/>
      <use xlink:href="#Arial-BoldMT-72" transform="translate(1128.125 0)"/>
      <use xlink:href="#Arial-BoldMT-6f" transform="translate(1167.041016 0)"/>
      <use xlink:href="#Arial-BoldMT-75" transform="translate(1228.125 0)"/>
      <use xlink:href="#Arial-BoldMT-70" transform="translate(1289.208984 0)"/>
     </g>
    </g>
   </g>
   <g id="matplotlib.axis_6">
    <g id="ytick_14">
     <g id="line2d_16">
      <path d="M 851.203281 335.005296 
L 1205.028281 335.005296 
" clip-path="url(#p526c81d142)" style="fill: none; stroke-dasharray: 2.22,0.96; stroke-dashoffset: 0; stroke: #cccccc; stroke-opacity: 0.28; stroke-width: 0.6"/>
     </g>
     <g id="text_37">
      <!-- -20 -->
      <g style="fill: #262626" transform="translate(830.696875 338.226311) scale(0.09 -0.09)">
       <use xlink:href="#Arial-BoldMT-2d"/>
       <use xlink:href="#Arial-BoldMT-32" transform="translate(33.300781 0)"/>
       <use xlink:href="#Arial-BoldMT-30" transform="translate(88.916016 0)"/>
      </g>
     </g>
    </g>
    <g id="ytick_15">
     <g id="line2d_17">
      <path d="M 851.203281 307.064659 
L 1205.028281 307.064659 
" clip-path="url(#p526c81d142)" style="fill: none; stroke-dasharray: 2.22,0.96; stroke-dashoffset: 0; stroke: #cccccc; stroke-opacity: 0.28; stroke-width: 0.6"/>
     </g>
     <g id="text_38">
      <!-- -10 -->
      <g style="fill: #262626" transform="translate(830.696875 310.285675) scale(0.09 -0.09)">
       <use xlink:href="#Arial-BoldMT-2d"/>
       <use xlink:href="#Arial-BoldMT-31" transform="translate(33.300781 0)"/>
       <use xlink:href="#Arial-BoldMT-30" transform="translate(88.916016 0)"/>
      </g>
     </g>
    </g>
    <g id="ytick_16">
     <g id="line2d_18">
      <path d="M 851.203281 279.124023 
L 1205.028281 279.124023 
" clip-path="url(#p526c81d142)" style="fill: none; stroke-dasharray: 2.22,0.96; stroke-dashoffset: 0; stroke: #cccccc; stroke-opacity: 0.28; stroke-width: 0.6"/>
     </g>
     <g id="text_39">
      <!-- 0 -->
      <g style="fill: #262626" transform="translate(838.698438 282.345039) scale(0.09 -0.09)">
       <use xlink:href="#Arial-BoldMT-30"/>
      </g>
     </g>
    </g>
    <g id="ytick_17">
     <g id="line2d_19">
      <path d="M 851.203281 251.183387 
L 1205.028281 251.183387 
" clip-path="url(#p526c81d142)" style="fill: none; stroke-dasharray: 2.22,0.96; stroke-dashoffset: 0; stroke: #cccccc; stroke-opacity: 0.28; stroke-width: 0.6"/>
     </g>
     <g id="text_40">
      <!-- 10 -->
      <g style="fill: #262626" transform="translate(833.693594 254.404402) scale(0.09 -0.09)">
       <use xlink:href="#Arial-BoldMT-31"/>
       <use xlink:href="#Arial-BoldMT-30" transform="translate(55.615234 0)"/>
      </g>
     </g>
    </g>
    <g id="ytick_18">
     <g id="line2d_20">
      <path d="M 851.203281 223.24275 
L 1205.028281 223.24275 
" clip-path="url(#p526c81d142)" style="fill: none; stroke-dasharray: 2.22,0.96; stroke-dashoffset: 0; stroke: #cccccc; stroke-opacity: 0.28; stroke-width: 0.6"/>
     </g>
     <g id="text_41">
      <!-- 20 -->
      <g style="fill: #262626" transform="translate(833.693594 226.463766) scale(0.09 -0.09)">
       <use xlink:href="#Arial-BoldMT-32"/>
       <use xlink:href="#Arial-BoldMT-30" transform="translate(55.615234 0)"/>
      </g>
     </g>
    </g>
    <g id="ytick_19">
     <g id="line2d_21">
      <path d="M 851.203281 195.302114 
L 1205.028281 195.302114 
" clip-path="url(#p526c81d142)" style="fill: none; stroke-dasharray: 2.22,0.96; stroke-dashoffset: 0; stroke: #cccccc; stroke-opacity: 0.28; stroke-width: 0.6"/>
     </g>
     <g id="text_42">
      <!-- 30 -->
      <g style="fill: #262626" transform="translate(833.693594 198.52313) scale(0.09 -0.09)">
       <use xlink:href="#Arial-BoldMT-33"/>
       <use xlink:href="#Arial-BoldMT-30" transform="translate(55.615234 0)"/>
      </g>
     </g>
    </g>
    <g id="ytick_20">
     <g id="line2d_22">
      <path d="M 851.203281 167.361478 
L 1205.028281 167.361478 
" clip-path="url(#p526c81d142)" style="fill: none; stroke-dasharray: 2.22,0.96; stroke-dashoffset: 0; stroke: #cccccc; stroke-opacity: 0.28; stroke-width: 0.6"/>
     </g>
     <g id="text_43">
      <!-- 40 -->
      <g style="fill: #262626" transform="translate(833.693594 170.582493) scale(0.09 -0.09)">
       <use xlink:href="#Arial-BoldMT-34"/>
       <use xlink:href="#Arial-BoldMT-30" transform="translate(55.615234 0)"/>
      </g>
     </g>
    </g>
    <g id="ytick_21">
     <g id="line2d_23">
      <path d="M 851.203281 139.420841 
L 1205.028281 139.420841 
" clip-path="url(#p526c81d142)" style="fill: none; stroke-dasharray: 2.22,0.96; stroke-dashoffset: 0; stroke: #cccccc; stroke-opacity: 0.28; stroke-width: 0.6"/>
     </g>
     <g id="text_44">
      <!-- 50 -->
      <g style="fill: #262626" transform="translate(833.693594 142.641857) scale(0.09 -0.09)">
       <use xlink:href="#Arial-BoldMT-35"/>
       <use xlink:href="#Arial-BoldMT-30" transform="translate(55.615234 0)"/>
      </g>
     </g>
    </g>
    <g id="ytick_22">
     <g id="line2d_24">
      <path d="M 851.203281 111.480205 
L 1205.028281 111.480205 
" clip-path="url(#p526c81d142)" style="fill: none; stroke-dasharray: 2.22,0.96; stroke-dashoffset: 0; stroke: #cccccc; stroke-opacity: 0.28; stroke-width: 0.6"/>
     </g>
     <g id="text_45">
      <!-- 60 -->
      <g style="fill: #262626" transform="translate(833.693594 114.701221) scale(0.09 -0.09)">
       <use xlink:href="#Arial-BoldMT-36"/>
       <use xlink:href="#Arial-BoldMT-30" transform="translate(55.615234 0)"/>
      </g>
     </g>
    </g>
    <g id="text_46">
     <!-- Improvement over Raw (%) -->
     <g style="fill: #262626" transform="translate(824.486953 286.678672) rotate(-90) scale(0.105 -0.105)">
      <use xlink:href="#Arial-BoldMT-49"/>
      <use xlink:href="#Arial-BoldMT-6d" transform="translate(27.783203 0)"/>
      <use xlink:href="#Arial-BoldMT-70" transform="translate(116.699219 0)"/>
      <use xlink:href="#Arial-BoldMT-72" transform="translate(177.783203 0)"/>
      <use xlink:href="#Arial-BoldMT-6f" transform="translate(216.699219 0)"/>
      <use xlink:href="#Arial-BoldMT-76" transform="translate(277.783203 0)"/>
      <use xlink:href="#Arial-BoldMT-65" transform="translate(333.398438 0)"/>
      <use xlink:href="#Arial-BoldMT-6d" transform="translate(389.013672 0)"/>
      <use xlink:href="#Arial-BoldMT-65" transform="translate(477.929688 0)"/>
      <use xlink:href="#Arial-BoldMT-6e" transform="translate(533.544922 0)"/>
      <use xlink:href="#Arial-BoldMT-74" transform="translate(594.628906 0)"/>
      <use xlink:href="#Arial-BoldMT-20" transform="translate(627.929688 0)"/>
      <use xlink:href="#Arial-BoldMT-6f" transform="translate(655.712891 0)"/>
      <use xlink:href="#Arial-BoldMT-76" transform="translate(716.796875 0)"/>
      <use xlink:href="#Arial-BoldMT-65" transform="translate(772.412109 0)"/>
      <use xlink:href="#Arial-BoldMT-72" transform="translate(828.027344 0)"/>
      <use xlink:href="#Arial-BoldMT-20" transform="translate(866.943359 0)"/>
      <use xlink:href="#Arial-BoldMT-52" transform="translate(894.726562 0)"/>
      <use xlink:href="#Arial-BoldMT-61" transform="translate(966.943359 0)"/>
      <use xlink:href="#Arial-BoldMT-77" transform="translate(1022.558594 0)"/>
      <use xlink:href="#Arial-BoldMT-20" transform="translate(1100.341797 0)"/>
      <use xlink:href="#Arial-BoldMT-28" transform="translate(1128.125 0)"/>
      <use xlink:href="#Arial-BoldMT-25" transform="translate(1161.425781 0)"/>
      <use xlink:href="#Arial-BoldMT-29" transform="translate(1250.341797 0)"/>
     </g>
    </g>
   </g>
   <g id="patch_33">
    <path d="M 865.594042 279.124023 
L 892.185664 279.124023 
L 892.185664 279.377748 
L 865.594042 279.377748 
z
" clip-path="url(#p526c81d142)" style="fill: #3b82b4; stroke: #000000; stroke-width: 0.9; stroke-linejoin: miter"/>
   </g>
   <g id="patch_34">
    <path d="M 943.804696 279.124023 
L 970.396318 279.124023 
L 970.396318 129.321211 
L 943.804696 129.321211 
z
" clip-path="url(#p526c81d142)" style="fill: #3b82b4; stroke: #000000; stroke-width: 0.9; stroke-linejoin: miter"/>
   </g>
   <g id="patch_35">
    <path d="M 1022.01535 279.124023 
L 1048.606973 279.124023 
L 1048.606973 109.669514 
L 1022.01535 109.669514 
z
" clip-path="url(#p526c81d142)" style="fill: #3b82b4; stroke: #000000; stroke-width: 0.9; stroke-linejoin: miter"/>
   </g>
   <g id="patch_36">
    <path d="M 1100.226005 279.124023 
L 1126.817627 279.124023 
L 1126.817627 129.948688 
L 1100.226005 129.948688 
z
" clip-path="url(#p526c81d142)" style="fill: #3b82b4; stroke: #000000; stroke-width: 0.9; stroke-linejoin: miter"/>
   </g>
   <g id="patch_37">
    <path d="M 0 0 
z
" clip-path="url(#p526c81d142)" style="fill: #3b82b4; stroke: #000000; stroke-width: 0.9; stroke-linejoin: miter"/>
   </g>
   <g id="patch_38">
    <path d="M 892.185664 279.124023 
L 918.777287 279.124023 
L 918.777287 330.535455 
L 892.185664 330.535455 
z
" clip-path="url(#p526c81d142)" style="fill: #d65f5f; stroke: #000000; stroke-width: 0.9; stroke-linejoin: miter"/>
   </g>
   <g id="patch_39">
    <path d="M 970.396318 279.124023 
L 996.987941 279.124023 
L 996.987941 130.049018 
L 970.396318 130.049018 
z
" clip-path="url(#p526c81d142)" style="fill: #d65f5f; stroke: #000000; stroke-width: 0.9; stroke-linejoin: miter"/>
   </g>
   <g id="patch_40">
    <path d="M 1048.606973 279.124023 
L 1075.198595 279.124023 
L 1075.198595 108.044545 
L 1048.606973 108.044545 
z
" clip-path="url(#p526c81d142)" style="fill: #d65f5f; stroke: #000000; stroke-width: 0.9; stroke-linejoin: miter"/>
   </g>
   <g id="patch_41">
    <path d="M 1126.817627 279.124023 
L 1153.409249 279.124023 
L 1153.409249 126.200804 
L 1126.817627 126.200804 
z
" clip-path="url(#p526c81d142)" style="fill: #d65f5f; stroke: #000000; stroke-width: 0.9; stroke-linejoin: miter"/>
   </g>
   <g id="patch_42">
    <path d="M 0 0 
z
" clip-path="url(#p526c81d142)" style="fill: #d65f5f; stroke: #000000; stroke-width: 0.9; stroke-linejoin: miter"/>
   </g>
   <g id="line2d_25">
    <path d="M 851.203281 279.124023 
L 1205.028281 279.124023 
" clip-path="url(#p526c81d142)" style="fill: none; stroke-dasharray: 3.7,1.6; stroke-dashoffset: 0; stroke: #000000"/>
   </g>
   <g id="patch_43">
    <path d="M 851.203281 341.66 
L 851.203281 96.92 
" style="fill: none; stroke: #262626; stroke-width: 1.2; stroke-linejoin: miter; stroke-linecap: square"/>
   </g>
   <g id="patch_44">
    <path d="M 1205.028281 341.66 
L 1205.028281 96.92 
" style="fill: none; stroke: #262626; stroke-width: 1.2; stroke-linejoin: miter; stroke-linecap: square"/>
   </g>
   <g id="patch_45">
    <path d="M 851.203281 341.66 
L 1205.028281 341.66 
" style="fill: none; stroke: #262626; stroke-width: 1.2; stroke-linejoin: miter; stroke-linecap: square"/>
   </g>
   <g id="patch_46">
    <path d="M 851.203281 96.92 
L 1205.028281 96.92 
" style="fill: none; stroke: #262626; stroke-width: 1.2; stroke-linejoin: miter; stroke-linecap: square"/>
   </g>
   <g id="text_47">
    <!-- Abundance-stratified improvement -->
    <g style="fill: #262626" transform="translate(932.912852 76.604578) scale(0.115 -0.115)">
     <use xlink:href="#Arial-BoldMT-41"/>
     <use xlink:href="#Arial-BoldMT-62" transform="translate(72.216797 0)"/>
     <use xlink:href="#Arial-BoldMT-75" transform="translate(133.300781 0)"/>
     <use xlink:href="#Arial-BoldMT-6e" transform="translate(194.384766 0)"/>
     <use xlink:href="#Arial-BoldMT-64" transform="translate(255.46875 0)"/>
     <use xlink:href="#Arial-BoldMT-61" transform="translate(316.552734 0)"/>
     <use xlink:href="#Arial-BoldMT-6e" transform="translate(372.167969 0)"/>
     <use xlink:href="#Arial-BoldMT-63" transform="translate(433.251953 0)"/>
     <use xlink:href="#Arial-BoldMT-65" transform="translate(488.867188 0)"/>
     <use xlink:href="#Arial-BoldMT-2d" transform="translate(544.482422 0)"/>
     <use xlink:href="#Arial-BoldMT-73" transform="translate(577.783203 0)"/>
     <use xlink:href="#Arial-BoldMT-74" transform="translate(633.398438 0)"/>
     <use xlink:href="#Arial-BoldMT-72" transform="translate(666.699219 0)"/>
     <use xlink:href="#Arial-BoldMT-61" transform="translate(705.615234 0)"/>
     <use xlink:href="#Arial-BoldMT-74" transform="translate(761.230469 0)"/>
     <use xlink:href="#Arial-BoldMT-69" transform="translate(794.53125 0)"/>
     <use xlink:href="#Arial-BoldMT-66" transform="translate(822.314453 0)"/>
     <use xlink:href="#Arial-BoldMT-69" transform="translate(855.615234 0)"/>
     <use xlink:href="#Arial-BoldMT-65" transform="translate(883.398438 0)"/>
     <use xlink:href="#Arial-BoldMT-64" transform="translate(939.013672 0)"/>
     <use xlink:href="#Arial-BoldMT-20" transform="translate(1000.097656 0)"/>
     <use xlink:href="#Arial-BoldMT-69" transform="translate(1027.880859 0)"/>
     <use xlink:href="#Arial-BoldMT-6d" transform="translate(1055.664062 0)"/>
     <use xlink:href="#Arial-BoldMT-70" transform="translate(1144.580078 0)"/>
     <use xlink:href="#Arial-BoldMT-72" transform="translate(1205.664062 0)"/>
     <use xlink:href="#Arial-BoldMT-6f" transform="translate(1244.580078 0)"/>
     <use xlink:href="#Arial-BoldMT-76" transform="translate(1305.664062 0)"/>
     <use xlink:href="#Arial-BoldMT-65" transform="translate(1361.279297 0)"/>
     <use xlink:href="#Arial-BoldMT-6d" transform="translate(1416.894531 0)"/>
     <use xlink:href="#Arial-BoldMT-65" transform="translate(1505.810547 0)"/>
     <use xlink:href="#Arial-BoldMT-6e" transform="translate(1561.425781 0)"/>
     <use xlink:href="#Arial-BoldMT-74" transform="translate(1622.509766 0)"/>
    </g>
    <!-- RMSE (log10 scale) -->
    <g style="fill: #262626" transform="translate(975.074727 88.92) scale(0.115 -0.115)">
     <use xlink:href="#Arial-BoldMT-52"/>
     <use xlink:href="#Arial-BoldMT-4d" transform="translate(72.216797 0)"/>
     <use xlink:href="#Arial-BoldMT-53" transform="translate(155.517578 0)"/>
     <use xlink:href="#Arial-BoldMT-45" transform="translate(222.216797 0)"/>
     <use xlink:href="#Arial-BoldMT-20" transform="translate(288.916016 0)"/>
     <use xlink:href="#Arial-BoldMT-28" transform="translate(316.699219 0)"/>
     <use xlink:href="#Arial-BoldMT-6c" transform="translate(350 0)"/>
     <use xlink:href="#Arial-BoldMT-6f" transform="translate(377.783203 0)"/>
     <use xlink:href="#Arial-BoldMT-67" transform="translate(438.867188 0)"/>
     <use xlink:href="#Arial-BoldMT-31" transform="translate(499.951172 0)"/>
     <use xlink:href="#Arial-BoldMT-30" transform="translate(555.566406 0)"/>
     <use xlink:href="#Arial-BoldMT-20" transform="translate(611.181641 0)"/>
     <use xlink:href="#Arial-BoldMT-73" transform="translate(638.964844 0)"/>
     <use xlink:href="#Arial-BoldMT-63" transform="translate(694.580078 0)"/>
     <use xlink:href="#Arial-BoldMT-61" transform="translate(750.195312 0)"/>
     <use xlink:href="#Arial-BoldMT-6c" transform="translate(805.810547 0)"/>
     <use xlink:href="#Arial-BoldMT-65" transform="translate(833.59375 0)"/>
     <use xlink:href="#Arial-BoldMT-29" transform="translate(889.208984 0)"/>
    </g>
   </g>
  </g>
  <g id="text_48">
   <!-- Figure 5. Zero-recovery and abundance-stratified improvements -->
   <g style="fill: #262626" transform="translate(378.026953 18.119531) scale(0.15 -0.15)">
    <use xlink:href="#Arial-BoldMT-46"/>
    <use xlink:href="#Arial-BoldMT-69" transform="translate(61.083984 0)"/>
    <use xlink:href="#Arial-BoldMT-67" transform="translate(88.867188 0)"/>
    <use xlink:href="#Arial-BoldMT-75" transform="translate(149.951172 0)"/>
    <use xlink:href="#Arial-BoldMT-72" transform="translate(211.035156 0)"/>
    <use xlink:href="#Arial-BoldMT-65" transform="translate(249.951172 0)"/>
    <use xlink:href="#Arial-BoldMT-20" transform="translate(305.566406 0)"/>
    <use xlink:href="#Arial-BoldMT-35" transform="translate(333.349609 0)"/>
    <use xlink:href="#Arial-BoldMT-2e" transform="translate(388.964844 0)"/>
    <use xlink:href="#Arial-BoldMT-20" transform="translate(416.748047 0)"/>
    <use xlink:href="#Arial-BoldMT-5a" transform="translate(444.53125 0)"/>
    <use xlink:href="#Arial-BoldMT-65" transform="translate(505.615234 0)"/>
    <use xlink:href="#Arial-BoldMT-72" transform="translate(561.230469 0)"/>
    <use xlink:href="#Arial-BoldMT-6f" transform="translate(600.146484 0)"/>
    <use xlink:href="#Arial-BoldMT-2d" transform="translate(661.230469 0)"/>
    <use xlink:href="#Arial-BoldMT-72" transform="translate(694.53125 0)"/>
    <use xlink:href="#Arial-BoldMT-65" transform="translate(733.447266 0)"/>
    <use xlink:href="#Arial-BoldMT-63" transform="translate(789.0625 0)"/>
    <use xlink:href="#Arial-BoldMT-6f" transform="translate(844.677734 0)"/>
    <use xlink:href="#Arial-BoldMT-76" transform="translate(905.761719 0)"/>
    <use xlink:href="#Arial-BoldMT-65" transform="translate(961.376953 0)"/>
    <use xlink:href="#Arial-BoldMT-72" transform="translate(1016.992188 0)"/>
    <use xlink:href="#Arial-BoldMT-79" transform="translate(1055.908203 0)"/>
    <use xlink:href="#Arial-BoldMT-20" transform="translate(1111.523438 0)"/>
    <use xlink:href="#Arial-BoldMT-61" transform="translate(1139.306641 0)"/>
    <use xlink:href="#Arial-BoldMT-6e" transform="translate(1194.921875 0)"/>
    <use xlink:href="#Arial-BoldMT-64" transform="translate(1256.005859 0)"/>
    <use xlink:href="#Arial-BoldMT-20" transform="translate(1317.089844 0)"/>
    <use xlink:href="#Arial-BoldMT-61" transform="translate(1344.873047 0)"/>
    <use xlink:href="#Arial-BoldMT-62" transform="translate(1400.488281 0)"/>
    <use xlink:href="#Arial-BoldMT-75" transform="translate(1461.572266 0)"/>
    <use xlink:href="#Arial-BoldMT-6e" transform="translate(1522.65625 0)"/>
    <use xlink:href="#Arial-BoldMT-64" transform="translate(1583.740234 0)"/>
    <use xlink:href="#Arial-BoldMT-61" transform="translate(1644.824219 0)"/>
    <use xlink:href="#Arial-BoldMT-6e" transform="translate(1700.439453 0)"/>
    <use xlink:href="#Arial-BoldMT-63" transform="translate(1761.523438 0)"/>
    <use xlink:href="#Arial-BoldMT-65" transform="translate(1817.138672 0)"/>
    <use xlink:href="#Arial-BoldMT-2d" transform="translate(1872.753906 0)"/>
    <use xlink:href="#Arial-BoldMT-73" transform="translate(1906.054688 0)"/>
    <use xlink:href="#Arial-BoldMT-74" transform="translate(1961.669922 0)"/>
    <use xlink:href="#Arial-BoldMT-72" transform="translate(1994.970703 0)"/>
    <use xlink:href="#Arial-BoldMT-61" transform="translate(2033.886719 0)"/>
    <use xlink:href="#Arial-BoldMT-74" transform="translate(2089.501953 0)"/>
    <use xlink:href="#Arial-BoldMT-69" transform="translate(2122.802734 0)"/>
    <use xlink:href="#Arial-BoldMT-66" transform="translate(2150.585938 0)"/>
    <use xlink:href="#Arial-BoldMT-69" transform="translate(2183.886719 0)"/>
    <use xlink:href="#Arial-BoldMT-65" transform="translate(2211.669922 0)"/>
    <use xlink:href="#Arial-BoldMT-64" transform="translate(2267.285156 0)"/>
    <use xlink:href="#Arial-BoldMT-20" transform="translate(2328.369141 0)"/>
    <use xlink:href="#Arial-BoldMT-69" transform="translate(2356.152344 0)"/>
    <use xlink:href="#Arial-BoldMT-6d" transform="translate(2383.935547 0)"/>
    <use xlink:href="#Arial-BoldMT-70" transform="translate(2472.851562 0)"/>
    <use xlink:href="#Arial-BoldMT-72" transform="translate(2533.935547 0)"/>
    <use xlink:href="#Arial-BoldMT-6f" transform="translate(2572.851562 0)"/>
    <use xlink:href="#Arial-BoldMT-76" transform="translate(2633.935547 0)"/>
    <use xlink:href="#Arial-BoldMT-65" transform="translate(2689.550781 0)"/>
    <use xlink:href="#Arial-BoldMT-6d" transform="translate(2745.166016 0)"/>
    <use xlink:href="#Arial-BoldMT-65" transform="translate(2834.082031 0)"/>
    <use xlink:href="#Arial-BoldMT-6e" transform="translate(2889.697266 0)"/>
    <use xlink:href="#Arial-BoldMT-74" transform="translate(2950.78125 0)"/>
    <use xlink:href="#Arial-BoldMT-73" transform="translate(2984.082031 0)"/>
   </g>
  </g>
 </g>
 <defs>
  <clipPath id="p934bfa7b32">
   <rect x="38.563281" y="96.92" width="353.825" height="244.74"/>
  </clipPath>
  <clipPath id="p79b232d3e2">
   <rect x="444.883281" y="96.92" width="353.825" height="244.74"/>
  </clipPath>
  <clipPath id="p526c81d142">
   <rect x="851.203281" y="96.92" width="353.825" height="244.74"/>
  </clipPath>
 </defs>
</svg>
